<svg width="31" height="30" viewBox="0 0 31 30" fill="none" xmlns="http://www.w3.org/2000/svg">
<g clip-path="url(#clip0_914_464)">
<path d="M18.0438 26.6454C17.8005 26.7089 17.5522 26.7655 17.3058 26.8145C16.6612 26.9416 16.2452 27.5504 16.3769 28.1742C16.3843 28.2099 16.3935 28.2437 16.404 28.2778C16.5799 28.8417 17.1742 29.1935 17.7822 29.0734C18.0763 29.0152 18.3727 28.9474 18.6632 28.8717C19.2987 28.7063 19.675 28.0736 19.504 27.4587C19.3329 26.8429 18.6792 26.4798 18.0438 26.6454Z" fill="#FF9F1C"/>
<path d="M9.73946 26.0034C9.5094 25.9044 9.27987 25.7971 9.05719 25.6844C8.47366 25.39 7.75431 25.6088 7.45002 26.1734C7.29982 26.4511 7.27872 26.761 7.36551 27.0391C7.45512 27.3259 7.65899 27.5791 7.95475 27.7285C8.22055 27.8625 8.49374 27.9906 8.76781 28.1088C9.3684 28.3684 10.073 28.1078 10.3413 27.5267C10.6097 26.945 10.3401 26.2636 9.73946 26.0034Z" fill="#FF9F1C"/>
<path d="M13.8366 27.017C13.5861 26.9975 13.3319 26.97 13.0824 26.9361C12.4309 26.8463 11.8281 27.285 11.7356 27.9154C11.7104 28.0868 11.7258 28.2543 11.7742 28.4096C11.904 28.826 12.2735 29.1533 12.7479 29.2189C13.0447 29.2594 13.3469 29.292 13.6455 29.315C14.3015 29.3664 14.8759 28.8933 14.9287 28.2588C14.9814 27.624 14.4928 27.0681 13.8366 27.017Z" fill="#FF9F1C"/>
<path d="M21.8812 24.9258C21.6742 25.0636 21.4595 25.1974 21.2434 25.3237C20.7673 25.6013 20.564 26.1505 20.7173 26.6429C20.7455 26.7331 20.7858 26.8215 20.8383 26.9062C21.1777 27.4516 21.9099 27.6267 22.4735 27.2984C22.7304 27.1484 22.9857 26.9889 23.2318 26.8252C23.7736 26.4642 23.9109 25.7463 23.5378 25.2221C23.1649 24.6973 22.4229 24.5649 21.8812 24.9258Z" fill="#FF9F1C"/>
<path d="M26.5633 21.8081C26.0297 21.4358 25.2851 21.5526 24.9003 22.0687C24.7533 22.2661 24.5978 22.462 24.4385 22.6499C24.1772 22.9587 24.1094 23.359 24.2199 23.7144C24.286 23.9259 24.4154 24.1219 24.6052 24.2724C25.1141 24.6758 25.8646 24.6034 26.2814 24.1108C26.4716 23.8865 26.6573 23.6529 26.8324 23.4176C27.2173 22.9012 27.0969 22.1808 26.5633 21.8081Z" fill="#FF9F1C"/>
<path d="M28.2308 17.609C27.5994 17.4305 26.9379 17.7815 26.7537 18.3927C26.6829 18.6268 26.6041 18.8619 26.5196 19.0912C26.43 19.3326 26.4287 19.5843 26.5 19.8123C26.6053 20.1505 26.8691 20.4372 27.2385 20.5653C27.858 20.7803 28.5397 20.4689 28.7622 19.8697C28.8632 19.5964 28.9571 19.3167 29.0407 19.0382C29.2248 18.4273 28.8622 17.7869 28.2308 17.609Z" fill="#FF9F1C"/>
<path d="M30.4663 10.0978L28.9007 10.5686C27.7126 7.04499 25.2109 4.1495 21.8249 2.39097C21.4841 2.21382 21.1384 2.05105 20.7884 1.90147C20.7858 1.9003 20.7838 1.89933 20.7815 1.89783C20.7668 1.89185 20.7515 1.88626 20.7372 1.88015C17.6502 0.572947 14.234 0.325145 10.9592 1.18335C10.9335 1.18823 10.9078 1.19291 10.8824 1.19986C10.773 1.22873 10.6627 1.25999 10.5538 1.29146C10.375 1.34372 10.1952 1.40002 10.0188 1.45859C9.99791 1.46554 9.97823 1.47419 9.95795 1.48199C7.03473 2.46195 4.54537 4.26872 2.76946 6.68278C2.76315 6.6911 2.75603 6.69825 2.75005 6.70651C2.57647 6.94241 2.40834 7.18703 2.24954 7.43379C2.2396 7.44959 2.23134 7.46604 2.22187 7.48235C2.06348 7.73093 1.91126 7.98524 1.76711 8.24461C0.295221 10.8992 -0.266276 13.8652 0.11681 16.795C0.117683 16.8017 0.11849 16.808 0.119094 16.8146C0.119699 16.8193 0.120773 16.8241 0.121915 16.829C0.226033 17.6117 0.397055 18.3918 0.637197 19.1624C1.26781 21.1857 2.32007 23.005 3.76456 24.5701C4.20272 25.0448 4.95586 25.0857 5.44663 24.6617C5.93712 24.2375 5.97991 23.5085 5.54141 23.034C4.82031 22.253 4.21683 21.3953 3.73379 20.4712C3.72862 20.4598 3.72405 20.4482 3.71841 20.4372C3.60482 20.2192 3.49687 19.9957 3.39692 19.772C3.39638 19.7703 3.39578 19.7692 3.39497 19.7678C3.21307 19.3561 3.05447 18.9322 2.91852 18.4967C1.35722 13.487 3.34835 8.24481 7.48035 5.31382C7.54148 5.27079 7.60254 5.22737 7.66427 5.18563C8.72506 4.4616 9.92154 3.88746 11.231 3.50536C12.5488 3.12092 13.8814 2.95944 15.1866 2.99727C15.2077 2.99819 15.2282 2.99877 15.2491 2.99936C15.3287 3.0017 15.4081 3.00579 15.4874 3.01008C15.5194 3.01171 15.5513 3.0134 15.5833 3.01535C19.6531 3.26172 23.406 5.44916 25.5128 8.8857C25.5139 8.88765 25.5147 8.88986 25.5162 8.89181C25.5474 8.94284 25.5779 8.9938 25.6085 9.04542C25.6121 9.0512 25.6161 9.05634 25.6196 9.06225C26.0227 9.74631 26.3619 10.4783 26.6256 11.253L25.0601 11.724C24.6253 11.8548 24.5825 12.1575 24.9641 12.3969L28.3711 14.5324C28.753 14.772 29.2086 14.6348 29.3827 14.2285L30.9392 10.5998C31.1132 10.1932 30.9008 9.96714 30.4663 10.0978Z" fill="#FF9F1C"/>
<path d="M10.4309 15.0313C9.28283 15.8544 8.49973 16.5685 8.08232 17.1733C7.66531 17.778 7.41516 18.4237 7.33301 19.1102H14.5161V17.2216H10.7775C10.997 17.0127 11.188 16.8442 11.3507 16.7155C11.5134 16.5861 11.8355 16.3608 12.3176 16.0383C13.1287 15.4846 13.6882 14.9764 13.9959 14.5136C14.3034 14.0511 14.4573 13.5657 14.4573 13.0574C14.4573 12.5797 14.3231 12.1482 14.0547 11.763C13.7861 11.3783 13.4175 11.0928 12.9493 10.9069C12.4812 10.7213 11.8257 10.6282 10.983 10.6282C10.176 10.6282 9.5442 10.726 9.08742 10.9216C8.63119 11.1169 8.27725 11.3974 8.02663 11.763C7.77574 12.1294 7.60351 12.6385 7.50927 13.2905L9.9076 13.4782C9.97417 13.0082 10.1046 12.68 10.2984 12.4943C10.4926 12.3084 10.742 12.2154 11.0481 12.2154C11.3419 12.2154 11.5859 12.3057 11.7798 12.4858C11.9736 12.6657 12.0708 12.883 12.0708 13.1372C12.0708 13.3725 11.9728 13.6207 11.7768 13.8826C11.5808 14.1441 11.1321 14.5273 10.4309 15.0313Z" fill="#FF9F1C"/>
<path d="M21.7403 19.1102V17.5514H22.8217V15.7535H21.7403V10.6282H19.6535L15.292 15.6458V17.5514H19.6535V19.1102H21.7403ZM17.3492 15.7535L19.6535 13.1295V15.7535H17.3492Z" fill="#FF9F1C"/>
</g>
<defs>
<clipPath id="clip0_914_464">
<rect width="31" height="30" fill="white"/>
</clipPath>
</defs>
</svg>
