<svg width="30" height="30" viewBox="0 0 30 30" fill="none" xmlns="http://www.w3.org/2000/svg">
<path d="M26.25 3.75H3.75C3.08696 3.75 2.45107 4.01339 1.98223 4.48223C1.51339 4.95107 1.25 5.58696 1.25 6.25V15C1.25 15.663 1.51339 16.2989 1.98223 16.7678C2.45107 17.2366 3.08696 17.5 3.75 17.5H26.25C26.913 17.5 27.5489 17.2366 28.0178 16.7678C28.4866 16.2989 28.75 15.663 28.75 15V6.25C28.75 5.58696 28.4866 4.95107 28.0178 4.48223C27.5489 4.01339 26.913 3.75 26.25 3.75ZM26.25 15H3.75V6.25H26.25V15ZM6.25 12.5C6.25 12.1685 6.3817 11.8505 6.61612 11.6161C6.85054 11.3817 7.16848 11.25 7.5 11.25H22.5C22.8315 11.25 23.1495 11.3817 23.3839 11.6161C23.6183 11.8505 23.75 12.1685 23.75 12.5C23.75 12.8315 23.6183 13.1495 23.3839 13.3839C23.1495 13.6183 22.8315 13.75 22.5 13.75H7.5C7.16848 13.75 6.85054 13.6183 6.61612 13.3839C6.3817 13.1495 6.25 12.8315 6.25 12.5ZM20 8.75C20 8.41848 20.1317 8.10054 20.3661 7.86612C20.6005 7.6317 20.9185 7.5 21.25 7.5H22.5C22.8315 7.5 23.1495 7.6317 23.3839 7.86612C23.6183 8.10054 23.75 8.41848 23.75 8.75C23.75 9.08152 23.6183 9.39946 23.3839 9.63388C23.1495 9.8683 22.8315 10 22.5 10H21.25C20.9185 10 20.6005 9.8683 20.3661 9.63388C20.1317 9.39946 20 9.08152 20 8.75ZM12.2412 25.3662L13.8575 23.75L13.4912 23.3838C13.2569 23.1493 13.1253 22.8315 13.1253 22.5C13.1253 22.1685 13.2569 21.8507 13.4912 21.6162L15.9912 19.1163C16.227 18.8886 16.5428 18.7626 16.8705 18.7654C17.1982 18.7683 17.5118 18.8997 17.7435 19.1315C17.9753 19.3632 18.1067 19.6768 18.1096 20.0045C18.1124 20.3322 17.9864 20.648 17.7587 20.8838L16.1425 22.5L16.5087 22.8662C16.7431 23.1007 16.8747 23.4185 16.8747 23.75C16.8747 24.0815 16.7431 24.3993 16.5087 24.6338L14.0087 27.1338C13.773 27.3614 13.4572 27.4874 13.1295 27.4846C12.8018 27.4817 12.4882 27.3503 12.2565 27.1185C12.0247 26.8868 11.8933 26.5732 11.8904 26.2455C11.8876 25.9178 12.0136 25.602 12.2412 25.3662ZM19.1162 25.3662L20.7325 23.75L20.3662 23.3838C20.1319 23.1493 20.0003 22.8315 20.0003 22.5C20.0003 22.1685 20.1319 21.8507 20.3662 21.6162L22.8662 19.1163C23.102 18.8886 23.4178 18.7626 23.7455 18.7654C24.0732 18.7683 24.3868 18.8997 24.6185 19.1315C24.8503 19.3632 24.9817 19.6768 24.9846 20.0045C24.9874 20.3322 24.8614 20.648 24.6337 20.8838L23.0175 22.5L23.3837 22.8662C23.6181 23.1007 23.7497 23.4185 23.7497 23.75C23.7497 24.0815 23.6181 24.3993 23.3837 24.6338L20.8837 27.1338C20.648 27.3614 20.3322 27.4874 20.0045 27.4846C19.6768 27.4817 19.3632 27.3503 19.1315 27.1185C18.8997 26.8868 18.7683 26.5732 18.7654 26.2455C18.7626 25.9178 18.8886 25.602 19.1162 25.3662ZM5.36625 25.3662L6.9825 23.75L6.61625 23.3838C6.38191 23.1493 6.25027 22.8315 6.25027 22.5C6.25027 22.1685 6.38191 21.8507 6.61625 21.6162L9.11625 19.1163C9.352 18.8886 9.66776 18.7626 9.9955 18.7654C10.3232 18.7683 10.6368 18.8997 10.8685 19.1315C11.1003 19.3632 11.2317 19.6768 11.2346 20.0045C11.2374 20.3322 11.1114 20.648 10.8837 20.8838L9.2675 22.5L9.63375 22.8662C9.86809 23.1007 9.99973 23.4185 9.99973 23.75C9.99973 24.0815 9.86809 24.3993 9.63375 24.6338L7.13375 27.1338C6.898 27.3614 6.58224 27.4874 6.2545 27.4846C5.92675 27.4817 5.61324 27.3503 5.38148 27.1185C5.14972 26.8868 5.01825 26.5732 5.01541 26.2455C5.01256 25.9178 5.13855 25.602 5.36625 25.3662Z" fill="#FF9F1C"/>
</svg>
