<svg width="15" height="15" viewBox="0 0 15 15" fill="none" xmlns="http://www.w3.org/2000/svg">
<g clip-path="url(#clip0_914_656)">
<path d="M0.163086 13.2066C0.163086 13.639 0.334863 14.0537 0.640629 14.3595C0.946395 14.6652 1.3611 14.837 1.79352 14.837H13.2066C13.639 14.837 14.0537 14.6652 14.3595 14.3595C14.6652 14.0537 14.837 13.639 14.837 13.2066V1.79352C14.837 1.3611 14.6652 0.946395 14.3595 0.640629C14.0537 0.334863 13.639 0.163086 13.2066 0.163086H1.79352C1.3611 0.163086 0.946395 0.334863 0.640629 0.640629C0.334863 0.946395 0.163086 1.3611 0.163086 1.79352V13.2066ZM7.50004 2.60874H12.3913V7.50004H10.7609V4.23917H7.50004V2.60874ZM2.60874 7.50004H4.23917V10.7609H7.50004V12.3913H2.60874V7.50004Z" fill="#FF9F1C"/>
</g>
<defs>
<clipPath id="clip0_914_656">
<rect width="15" height="15" fill="white"/>
</clipPath>
</defs>
</svg>
