<svg width="38" height="38" viewBox="0 0 38 38" fill="none" xmlns="http://www.w3.org/2000/svg">
<path d="M1.1875 19C1.1875 28.8371 9.16288 36.8125 19 36.8125C28.8371 36.8125 36.8125 28.8371 36.8125 19C36.8125 9.16288 28.8371 1.1875 19 1.1875C9.16288 1.1875 1.1875 9.16288 1.1875 19ZM22.768 12.6509V25.3491C22.7678 25.6093 22.6935 25.8641 22.5538 26.0837C22.4141 26.3032 22.2148 26.4784 21.9792 26.5888C21.7436 26.6992 21.4814 26.7403 21.2233 26.7071C20.9652 26.6739 20.7218 26.568 20.5218 26.4016L12.8924 20.0533C12.7378 19.9247 12.6134 19.7637 12.5281 19.5817C12.4427 19.3996 12.3985 19.2011 12.3985 19C12.3985 18.7989 12.4427 18.6004 12.5281 18.4183C12.6134 18.2363 12.7378 18.0752 12.8924 17.9467L20.5218 11.5984C20.7218 11.432 20.9652 11.3261 21.2233 11.2929C21.4814 11.2597 21.7436 11.3008 21.9792 11.4112C22.2148 11.5216 22.4141 11.6968 22.5538 11.9163C22.6935 12.1359 22.7678 12.3907 22.768 12.6509Z" fill="#FF9F1C"/>
</svg>
