<svg width="15" height="15" viewBox="0 0 15 15" fill="none" xmlns="http://www.w3.org/2000/svg">
<g clip-path="url(#clip0_914_684)">
<path d="M6.89146 5.37366H3.54688V8.00879H6.89146V5.37366Z" fill="#FF9F1C"/>
<path d="M3.60254 4.1574H6.89196V0.910278C5.21533 1.17026 3.88391 2.48783 3.60254 4.1574Z" fill="#FF9F1C"/>
<path d="M8.1084 0.910278V4.15743H11.3978C11.1165 2.48783 9.78503 1.17026 8.1084 0.910278Z" fill="#FF9F1C"/>
<path d="M11.453 5.37366H8.1084V8.00879H11.453V5.37366Z" fill="#FF9F1C"/>
<path d="M14.3919 9.22485H13.5811H12.6689H12.0608H11.4527H11.1486H8.7162H8.10809H7.5H6.89188H6.28377H3.85134H3.54729H2.93918H2.33109H1.41891H0.608115C0.272314 9.22485 0 9.49714 0 9.83297C0 10.1688 0.272314 10.4411 0.608115 10.4411H0.81082V13.4816C0.81082 13.8175 1.08313 14.0897 1.41894 14.0897H3.85137H6.2838H8.71623H11.1487H13.5811C13.917 14.0897 14.1892 13.8175 14.1892 13.4816V10.4411H14.3919C14.7278 10.4411 15 10.1688 15 9.83297C15 9.49714 14.7278 9.22485 14.3919 9.22485ZM3.24325 10.8971V11.5053V12.8735H2.02702V10.4411H2.33106H2.93918H3.24322L3.24325 10.8971ZM5.67568 10.8971V11.5053V12.8735H4.45948V11.5053V10.8971V10.4411H5.67568V10.8971ZM8.10812 10.8971V11.5053V12.8735H6.89188V11.5053V10.8971V10.4411H7.5H8.10812V10.8971ZM10.5405 10.8971V11.5053V12.8735H9.32432V11.5053V10.8971V10.4411H10.5405V10.8971ZM12.973 12.8735H11.7567V11.5053V10.8971V10.4411H12.0608H12.6689H12.9729V12.8735H12.973Z" fill="#FF9F1C"/>
</g>
<defs>
<clipPath id="clip0_914_684">
<rect width="15" height="15" fill="white"/>
</clipPath>
</defs>
</svg>
