<svg width="29" height="29" viewBox="0 0 29 29" fill="none" xmlns="http://www.w3.org/2000/svg">
<g clip-path="url(#clip0_233_374)">
<path d="M27.077 9.92061H25.0336L19.8726 2.17216C19.6673 1.86437 19.3481 1.65075 18.9853 1.57829C18.6225 1.50583 18.2457 1.58047 17.9379 1.78579C17.6301 1.9911 17.4165 2.31028 17.344 2.6731C17.2716 3.03592 17.3462 3.41267 17.5515 3.72046L21.6817 9.92061H7.36488L11.4992 3.72046C11.7046 3.41267 11.7792 3.03592 11.7067 2.6731C11.6343 2.31028 11.4207 1.9911 11.1129 1.78579C10.8051 1.58047 10.4283 1.50583 10.0655 1.57829C9.7027 1.65075 9.38352 1.86437 9.1782 2.17216L4.01304 9.92061H1.96957C1.59963 9.92061 1.24484 10.0676 0.983252 10.3292C0.721665 10.5907 0.574707 10.9455 0.574707 11.3155C0.574707 11.6854 0.721665 12.0402 0.983252 12.3018C1.24484 12.5634 1.59963 12.7103 1.96957 12.7103H3.36443V23.8692C3.36443 24.6091 3.65834 25.3187 4.18152 25.8418C4.70469 26.365 5.41427 26.6589 6.15415 26.6589H22.8925C23.6323 26.6589 24.3419 26.365 24.8651 25.8418C25.3883 25.3187 25.6822 24.6091 25.6822 23.8692V12.7103H27.077C27.447 12.7103 27.8018 12.5634 28.0634 12.3018C28.3249 12.0402 28.4719 11.6854 28.4719 11.3155C28.4719 10.9455 28.3249 10.5907 28.0634 10.3292C27.8018 10.0676 27.447 9.92061 27.077 9.92061ZM10.3387 21.7769C10.3387 22.1469 10.1918 22.5016 9.93018 22.7632C9.66859 23.0248 9.31381 23.1718 8.94387 23.1718C8.57393 23.1718 8.21914 23.0248 7.95755 22.7632C7.69596 22.5016 7.54901 22.1469 7.54901 21.7769V16.1975C7.54901 15.8275 7.69596 15.4727 7.95755 15.2112C8.21914 14.9496 8.57393 14.8026 8.94387 14.8026C9.31381 14.8026 9.66859 14.9496 9.93018 15.2112C10.1918 15.4727 10.3387 15.8275 10.3387 16.1975V21.7769ZM15.9182 21.7769C15.9182 22.1469 15.7712 22.5016 15.5096 22.7632C15.248 23.0248 14.8932 23.1718 14.5233 23.1718C14.1534 23.1718 13.7986 23.0248 13.537 22.7632C13.2754 22.5016 13.1284 22.1469 13.1284 21.7769V16.1975C13.1284 15.8275 13.2754 15.4727 13.537 15.2112C13.7986 14.9496 14.1534 14.8026 14.5233 14.8026C14.8932 14.8026 15.248 14.9496 15.5096 15.2112C15.7712 15.4727 15.9182 15.8275 15.9182 16.1975V21.7769ZM21.4976 21.7769C21.4976 22.1469 21.3506 22.5016 21.0891 22.7632C20.8275 23.0248 20.4727 23.1718 20.1027 23.1718C19.7328 23.1718 19.378 23.0248 19.1164 22.7632C18.8548 22.5016 18.7079 22.1469 18.7079 21.7769V16.1975C18.7079 15.8275 18.8548 15.4727 19.1164 15.2112C19.378 14.9496 19.7328 14.8026 20.1027 14.8026C20.4727 14.8026 20.8275 14.9496 21.0891 15.2112C21.3506 15.4727 21.4976 15.8275 21.4976 16.1975V21.7769Z" fill="white"/>
</g>
<defs>
<clipPath id="clip0_233_374">
<rect width="27.8972" height="27.8972" fill="white" transform="translate(0.574707 0.156616)"/>
</clipPath>
</defs>
</svg>
