<svg width="23" height="23" viewBox="0 0 23 23" fill="none" xmlns="http://www.w3.org/2000/svg">
<g clip-path="url(#clip0_293_146)">
<mask id="mask0_293_146" style="mask-type:luminance" maskUnits="userSpaceOnUse" x="0" y="0" width="23" height="23">
<path d="M23 0H0V23H23V0Z" fill="white"/>
</mask>
<g mask="url(#mask0_293_146)">
<path d="M8.75011 16.0731C7.34306 16.2626 6.88981 16.4519 6.051 16.6076C5.21218 16.7631 2.58746 17.4396 2.58746 18.6166C2.58746 19.7937 4.98218 20.7069 6.42981 20.7069C7.87746 20.7069 9.12894 21.0114 10.3466 21.7351C11.5642 22.459 13.2757 23.0678 14.1889 22.9934C15.1022 22.919 15.8599 21.8164 16.0899 21.4714C16.3199 21.1264 17.3819 20.0643 18.3357 19.4961C19.2895 18.9278 20.3922 17.6696 19.8172 16.4926C19.2422 15.3087 8.75011 16.0731 8.75011 16.0731Z" fill="#80DAFE"/>
<path d="M19.8102 16.4921C19.5058 15.863 16.34 15.7886 13.4785 15.8494L7.28874 16.8439C5.92902 17.0604 4.60314 17.4662 3.35167 18.048C3.32461 18.1427 3.30432 18.2442 3.30432 18.3524C3.30432 18.4944 3.33138 18.6365 3.37197 18.7786C4.03491 19.7527 5.40137 20.8351 7.39697 20.1721C10.0487 19.2859 10.272 20.4562 12.085 21.2274C13.8978 21.9986 16.1235 21.4574 18.437 18.8869C19.0052 18.2509 19.4923 17.8519 19.905 17.5947C20.0063 17.2362 19.9928 16.8574 19.8102 16.4921Z" fill="url(#paint0_radial_293_146)"/>
<path d="M8.01279 16.4314C6.05103 16.6005 6.12543 17.0334 5.23926 17.1755C4.35308 17.3175 2.87161 17.7437 3.66984 18.941C4.46808 20.1384 7.72191 19.9422 9.16279 19.5093C10.6037 19.0832 12.6804 19.9625 13.6207 20.7067C14.561 21.4508 16.8407 20.3955 17.4969 19.2522C18.1531 18.109 19.4046 17.419 20.0337 17.2364C20.6628 17.0537 19.7225 16.0255 19.7225 16.0255L12.2137 16.2149L8.01279 16.4314Z" fill="url(#paint1_radial_293_146)"/>
<path d="M11.9633 14.571C11.111 14.571 9.87303 14.8349 8.25625 16.1337C6.63949 17.4325 3.98096 17.4054 3.98096 18.1699C3.98096 18.9342 4.89419 19.3875 6.47037 19.3875C8.04655 19.3875 9.68357 18.799 11.111 18.799C12.863 18.799 13.6207 19.9219 14.9127 19.9219C16.2047 19.9219 17.233 18.5149 17.4224 18.1902C17.6119 17.8654 18.5047 17.2566 19.0933 17.1078C19.6819 16.959 20.2501 16.614 19.533 15.8902C18.8092 15.1664 17.0842 14.8754 16.4686 14.8754C15.3457 14.8687 14.7572 14.571 11.9633 14.571Z" fill="url(#paint2_linear_293_146)"/>
<path d="M19.0933 17.1009C19.6819 16.9521 20.2501 16.6071 19.533 15.8833C19.4316 15.7818 19.303 15.6871 19.1609 15.5991C19.0324 15.6668 18.8294 15.7209 18.5454 15.7616C16.4754 16.0591 16.6242 18.278 14.818 17.6286C13.0119 16.9791 11.0771 17.1618 8.01271 18.0886C6.5786 18.5216 5.7533 18.1156 5.57065 17.3309C4.67095 17.5948 3.97418 17.7774 3.97418 18.163C3.97418 18.9206 4.88742 19.3806 6.4636 19.3806C8.03978 19.3806 9.67687 18.7921 11.1042 18.7921C12.8562 18.7921 13.6139 19.9151 14.9059 19.9151C16.198 19.9151 17.2262 18.508 17.4157 18.1833C17.6051 17.8586 18.498 17.2498 19.0933 17.1009Z" fill="url(#paint3_radial_293_146)"/>
<path d="M14.9059 19.9153C16.198 19.9153 17.2262 18.5081 17.4156 18.1835C17.6051 17.8588 18.498 17.2499 19.0866 17.1011C19.6751 16.9523 20.2433 16.6073 19.5262 15.8835C19.5059 15.8631 19.4789 15.8361 19.4518 15.8158C19.1271 16.4923 18.4844 16.8981 17.7809 16.9793C16.7527 17.0943 16.6106 19.1779 15.1021 18.8058C13.5936 18.4338 12.518 17.8926 10.103 18.4608C7.688 19.0291 6.49064 19.1711 5.63152 18.5488C4.77241 17.9264 7.41064 17.8181 7.77594 16.4585C6.15917 17.4258 3.96741 17.4799 3.96741 18.1699C3.96741 18.9276 4.88064 19.3876 6.45682 19.3876C8.033 19.3876 9.67007 18.7991 11.0974 18.7991C12.8562 18.7923 13.6139 19.9153 14.9059 19.9153Z" fill="url(#paint4_radial_293_146)"/>
<path d="M11.5237 15.349L11.9227 16.1878L12.7007 16.3569C12.7007 16.3569 14.1077 16.1472 14.4527 15.0852C14.5069 14.9296 14.5069 14.7942 14.473 14.6792C13.9657 14.6252 13.3162 14.5846 12.4166 14.571L11.5237 15.349Z" fill="url(#paint5_radial_293_146)"/>
<path d="M6.139 18.4272C6.19877 18.4272 6.24723 18.3788 6.24723 18.319C6.24723 18.2592 6.19877 18.2107 6.139 18.2107C6.07921 18.2107 6.03076 18.2592 6.03076 18.319C6.03076 18.3788 6.07921 18.4272 6.139 18.4272Z" fill="url(#paint6_radial_293_146)"/>
<path d="M10.3263 15.6537C10.3861 15.6537 10.4345 15.6053 10.4345 15.5455C10.4345 15.4857 10.3861 15.4373 10.3263 15.4373C10.2665 15.4373 10.2181 15.4857 10.2181 15.5455C10.2181 15.6053 10.2665 15.6537 10.3263 15.6537Z" fill="url(#paint7_radial_293_146)"/>
<path d="M8.81097 16.6749C8.85954 16.6749 8.89891 16.6356 8.89891 16.587C8.89891 16.5384 8.85954 16.499 8.81097 16.499C8.7624 16.499 8.72302 16.5384 8.72302 16.587C8.72302 16.6356 8.7624 16.6749 8.81097 16.6749Z" fill="url(#paint8_radial_293_146)"/>
<path d="M11.8213 18.0549C11.8549 18.0549 11.8822 18.0277 11.8822 17.9941C11.8822 17.9604 11.8549 17.9332 11.8213 17.9332C11.7877 17.9332 11.7604 17.9604 11.7604 17.9941C11.7604 18.0277 11.7877 18.0549 11.8213 18.0549Z" fill="url(#paint9_radial_293_146)"/>
<path d="M8.21557 18.6771C8.26041 18.6771 8.29675 18.6408 8.29675 18.5959C8.29675 18.5511 8.26041 18.5148 8.21557 18.5148C8.17074 18.5148 8.1344 18.5511 8.1344 18.5959C8.1344 18.6408 8.17074 18.6771 8.21557 18.6771Z" fill="url(#paint10_radial_293_146)"/>
<path d="M11.0162 17.2095C11.0461 17.2095 11.0704 17.1852 11.0704 17.1553C11.0704 17.1254 11.0461 17.1012 11.0162 17.1012C10.9863 17.1012 10.9621 17.1254 10.9621 17.1553C10.9621 17.1852 10.9863 17.2095 11.0162 17.2095Z" fill="url(#paint11_radial_293_146)"/>
<path d="M12.2271 16.9587C12.2832 16.9587 12.3286 16.9133 12.3286 16.8573C12.3286 16.8013 12.2832 16.7559 12.2271 16.7559C12.171 16.7559 12.1256 16.8013 12.1256 16.8573C12.1256 16.9133 12.171 16.9587 12.2271 16.9587Z" fill="url(#paint12_radial_293_146)"/>
<path d="M9.6092 17.5817C9.66526 17.5817 9.71069 17.5362 9.71069 17.4803C9.71069 17.4242 9.66526 17.3788 9.6092 17.3788C9.55319 17.3788 9.50775 17.4242 9.50775 17.4803C9.50775 17.5362 9.55319 17.5817 9.6092 17.5817Z" fill="url(#paint13_radial_293_146)"/>
<path d="M13.0524 17.9267C13.1346 17.9267 13.2012 17.8601 13.2012 17.7779C13.2012 17.6956 13.1346 17.629 13.0524 17.629C12.9702 17.629 12.9036 17.6956 12.9036 17.7779C12.9036 17.8601 12.9702 17.9267 13.0524 17.9267Z" fill="url(#paint14_radial_293_146)"/>
<path d="M14.5473 15.8702C14.5772 15.8702 14.6014 15.8459 14.6014 15.816C14.6014 15.7861 14.5772 15.762 14.5473 15.762C14.5174 15.762 14.4932 15.7861 14.4932 15.816C14.4932 15.8459 14.5174 15.8702 14.5473 15.8702Z" fill="url(#paint15_radial_293_146)"/>
<path d="M14.5881 16.959C14.6255 16.959 14.6558 16.9287 14.6558 16.8914C14.6558 16.854 14.6255 16.8237 14.5881 16.8237C14.5509 16.8237 14.5206 16.854 14.5206 16.8914C14.5206 16.9287 14.5509 16.959 14.5881 16.959Z" fill="url(#paint16_radial_293_146)"/>
<path d="M14.4053 18.2718C14.4277 18.2718 14.4459 18.2536 14.4459 18.2312C14.4459 18.2088 14.4277 18.1906 14.4053 18.1906C14.3829 18.1906 14.3647 18.2088 14.3647 18.2312C14.3647 18.2536 14.3829 18.2718 14.4053 18.2718Z" fill="url(#paint17_radial_293_146)"/>
<path d="M15.7856 18.3051C15.8342 18.3051 15.8736 18.2657 15.8736 18.2172C15.8736 18.1687 15.8342 18.1293 15.7856 18.1293C15.737 18.1293 15.6976 18.1687 15.6976 18.2172C15.6976 18.2657 15.737 18.3051 15.7856 18.3051Z" fill="url(#paint18_radial_293_146)"/>
<path d="M15.6973 15.4572C15.7534 15.4572 15.7988 15.4117 15.7988 15.3558C15.7988 15.2997 15.7534 15.2543 15.6973 15.2543C15.6413 15.2543 15.5958 15.2997 15.5958 15.3558C15.5958 15.4117 15.6413 15.4572 15.6973 15.4572Z" fill="url(#paint19_radial_293_146)"/>
<path d="M18.5453 15.8972C18.5827 15.8972 18.613 15.8669 18.613 15.8296C18.613 15.7922 18.5827 15.762 18.5453 15.762C18.5079 15.762 18.4777 15.7922 18.4777 15.8296C18.4777 15.8669 18.5079 15.8972 18.5453 15.8972Z" fill="url(#paint20_radial_293_146)"/>
<path d="M16.8 17.1553C16.8224 17.1553 16.8405 17.1372 16.8405 17.1147C16.8405 17.0923 16.8224 17.0741 16.8 17.0741C16.7775 17.0741 16.7593 17.0923 16.7593 17.1147C16.7593 17.1372 16.7775 17.1553 16.8 17.1553Z" fill="url(#paint21_radial_293_146)"/>
<path d="M17.0843 16.161C17.1403 16.161 17.1858 16.1156 17.1858 16.0595C17.1858 16.0036 17.1403 15.9581 17.0843 15.9581C17.0283 15.9581 16.9828 16.0036 16.9828 16.0595C16.9828 16.1156 17.0283 16.161 17.0843 16.161Z" fill="url(#paint22_radial_293_146)"/>
<path d="M9.46042 18.1835C9.28454 18.2174 9.21689 18.4 9.03424 18.3662C9.10189 18.1497 9.21689 18.0957 9.46042 18.1835Z" fill="#FAAF5C"/>
<path d="M16.6376 18.0417C16.5835 17.9335 16.5023 17.832 16.6309 17.7102C16.6648 17.6764 16.6648 17.6155 16.685 17.5547C16.8406 17.7441 16.658 17.8862 16.6376 18.0417Z" fill="#FAAF5C"/>
<path d="M14.7775 15.3694C14.8587 15.4235 14.9128 15.4641 14.9737 15.5047C14.9263 15.552 14.8722 15.6062 14.818 15.6602C14.7504 15.5452 14.7504 15.5452 14.7775 15.3694Z" fill="#FAAF5C"/>
<path d="M13.8235 17.1554C13.8033 17.169 13.7829 17.1825 13.7626 17.196C13.7018 17.2299 13.6273 17.2772 13.5733 17.2028C13.5191 17.1352 13.6138 17.1149 13.6409 17.0742C13.7085 16.993 13.7626 17.0472 13.81 17.1013C13.8168 17.1216 13.8168 17.1352 13.8235 17.1554Z" fill="#FAAF5C"/>
<path d="M9.81897 17.25C9.81897 17.3312 9.81216 17.3785 9.81897 17.4327C9.82568 17.48 9.84599 17.5206 9.8528 17.568C9.81216 17.595 9.75802 17.622 9.71748 17.6491C9.71068 17.3853 9.71068 17.3853 9.81897 17.25Z" fill="#FAAF5C"/>
<path d="M6.49072 18.2306C6.53131 18.1427 6.57189 18.0548 6.61249 17.9668C6.62601 17.9736 6.63277 17.9736 6.64631 17.9804C6.61925 18.0886 6.58542 18.1901 6.5516 18.3186C6.47719 18.2983 6.40277 18.2713 6.32837 18.2509C6.32837 18.2374 6.33513 18.2306 6.33513 18.2171C6.39601 18.2239 6.45013 18.2306 6.49072 18.2306Z" fill="#FAAF5C"/>
<path d="M10.3333 16.9929C10.5294 16.9794 10.4076 16.7697 10.5429 16.702C10.5633 16.7494 10.5971 16.79 10.5903 16.8305C10.5768 16.8915 10.5429 16.9455 10.5091 16.9929C10.4618 17.0538 10.4076 17.047 10.3333 16.9929Z" fill="#FAAF5C"/>
<path d="M17.2332 15.2543C17.3143 15.3084 17.3347 15.3896 17.2737 15.4504C17.2264 15.4978 17.1385 15.5046 17.064 15.4234C17.1182 15.3693 17.1722 15.3151 17.2332 15.2543Z" fill="#FAAF5C"/>
<path d="M8.83134 16.0525C8.87869 16.0187 8.92604 15.9848 8.98693 15.9375C9.03428 16.0119 9.07487 16.0863 9.12222 16.154C9.13576 16.1472 9.14928 16.1404 9.16281 16.1337C9.12899 16.1404 9.08164 16.1675 9.06134 16.154C8.99369 16.0998 8.93281 16.0525 8.81781 16.1404C8.82458 16.1134 8.83134 16.0795 8.83134 16.0525Z" fill="#FAAF5C"/>
<path d="M15.6705 16.3029C15.6299 16.3637 15.5825 16.4247 15.5352 16.499C15.4946 16.472 15.4608 16.4449 15.427 16.4179C15.5284 16.2622 15.5284 16.2622 15.6705 16.3029Z" fill="#FAAF5C"/>
<path d="M19.2894 16.3572C19.215 16.2625 19.1406 16.161 19.0459 16.0325C19.1677 16.0595 19.2624 16.046 19.2692 16.1813C19.2692 16.2286 19.3097 16.276 19.33 16.3301C19.3165 16.3368 19.303 16.3436 19.2894 16.3572Z" fill="#FAAF5C"/>
<path d="M15.7177 16.9796C15.8462 17.2298 15.8462 17.2298 15.7177 17.2975C15.7177 17.1893 15.7177 17.0811 15.7177 16.9796Z" fill="#FAAF5C"/>
<path d="M18.9041 15.8832C18.8364 15.8359 18.7891 15.8156 18.7756 15.7885C18.7485 15.7209 18.7418 15.6464 18.7282 15.5788C18.7214 15.5585 18.735 15.5314 18.7418 15.5111C18.7688 15.5247 18.8026 15.5382 18.8094 15.5585C18.8364 15.6464 18.8635 15.7411 18.9041 15.8832Z" fill="#FAAF5C"/>
<path d="M9.79179 15.694C9.70381 15.5181 9.70381 15.5181 9.81211 15.4166C9.9203 15.5316 9.9203 15.5316 9.79179 15.694Z" fill="#FAAF5C"/>
<path d="M7.74212 18.6908C7.74888 18.7991 7.69477 18.8667 7.61359 18.9208C7.58653 18.9343 7.54595 18.9411 7.51888 18.9276C7.50535 18.9208 7.48506 18.8735 7.49182 18.8599C7.50535 18.8396 7.53918 18.8193 7.56623 18.8126C7.64741 18.7923 7.64741 18.7923 7.74212 18.6908Z" fill="#FAAF5C"/>
<path d="M14.8925 17.7097C14.7843 17.5609 14.7978 17.5067 15.0075 17.3917C14.967 17.5 14.9332 17.5947 14.8925 17.7097Z" fill="#FAAF5C"/>
<path d="M10.7254 17.6021C10.7389 17.5818 10.7389 17.575 10.7456 17.5682C10.8201 17.5276 10.8877 17.5344 10.9351 17.6156C10.9418 17.6291 10.9283 17.6629 10.9148 17.6697C10.8268 17.7306 10.7863 17.6629 10.7254 17.6021Z" fill="#FAAF5C"/>
<path d="M15.6905 17.4733C15.677 17.5679 15.6702 17.6491 15.5823 17.6694C15.562 17.6762 15.5147 17.6694 15.5079 17.6627C15.5011 17.6356 15.4944 17.5816 15.5147 17.5679C15.562 17.5341 15.6161 17.5139 15.6905 17.4733Z" fill="#FAAF5C"/>
<path d="M13.7493 18.4068C13.5938 18.5082 13.5667 18.4947 13.499 18.3053C13.5938 18.3458 13.6682 18.373 13.7493 18.4068Z" fill="#FAAF5C"/>
<path d="M18.1598 17.2703C18.1598 17.3109 18.1665 17.3447 18.1598 17.3853C18.1529 17.4191 18.1394 17.4529 18.1259 17.4868C18.1259 17.4868 18.0786 17.4801 18.0718 17.4733C18.0583 17.4394 18.0379 17.3921 18.0448 17.3583C18.0583 17.3176 18.0921 17.2771 18.1124 17.2365C18.1326 17.2501 18.1462 17.2636 18.1598 17.2703Z" fill="#FAAF5C"/>
<path d="M13.7492 17.3311C13.7898 17.4122 13.8304 17.4799 13.8642 17.5543C13.7222 17.5678 13.6815 17.5001 13.7492 17.3311Z" fill="#FAAF5C"/>
<path d="M16.6377 15.5048C16.6242 15.4778 16.5904 15.444 16.5972 15.4237C16.604 15.3898 16.6514 15.3357 16.6581 15.3357C16.7054 15.356 16.746 15.3898 16.7934 15.4237C16.7392 15.444 16.6919 15.471 16.6377 15.5048Z" fill="#FAAF5C"/>
<path d="M19.7494 16.5061C19.6954 16.5331 19.648 16.5602 19.5871 16.5872C19.5601 16.5602 19.5059 16.5129 19.5804 16.4722C19.6344 16.4317 19.7156 16.3776 19.7494 16.5061Z" fill="#FAAF5C"/>
<path d="M17.8757 16.7423C17.896 16.7626 17.9299 16.7761 17.9299 16.7965C17.9367 16.8303 17.9299 16.8708 17.9299 16.9047C17.896 16.9047 17.8622 16.9115 17.8419 16.8911C17.7878 16.8573 17.7946 16.8168 17.8419 16.7761C17.8554 16.7694 17.869 16.7558 17.8757 16.7423Z" fill="#FAAF5C"/>
<path d="M7.59331 17.9874C7.64744 18.0416 7.67449 18.0754 7.70831 18.1092C7.68126 18.1295 7.66096 18.1566 7.64067 18.1566C7.61361 18.1634 7.57979 18.1431 7.54596 18.1431C7.55949 18.1024 7.57302 18.0551 7.59331 17.9874Z" fill="#FAAF5C"/>
<path d="M13.2623 17.7507C13.3096 17.7574 13.3366 17.7574 13.357 17.771C13.3908 17.8048 13.4246 17.8386 13.4584 17.8792C13.4584 17.8792 13.4381 17.9063 13.4313 17.9063C13.384 17.886 13.3366 17.8657 13.2961 17.8386C13.2825 17.8251 13.2825 17.7913 13.2623 17.7507Z" fill="#FAAF5C"/>
<path d="M16.374 19.002C16.4011 18.8735 16.4011 18.8735 16.55 18.8533C16.4755 18.9208 16.4282 18.9615 16.374 19.002Z" fill="#FAAF5C"/>
<path d="M13.4177 14.9838C13.3771 14.9364 13.35 14.9161 13.3365 14.8823C13.3298 14.8688 13.3703 14.8214 13.3906 14.8214C13.4177 14.8214 13.4718 14.8485 13.4718 14.862C13.4718 14.8959 13.4448 14.9297 13.4177 14.9838Z" fill="#FAAF5C"/>
<path d="M14.7573 18.0011C14.8385 18.1296 14.737 18.1905 14.6558 18.2514C14.6897 18.1702 14.7235 18.0891 14.7573 18.0011Z" fill="#FAAF5C"/>
<path d="M16.7526 18.6166C16.712 18.6571 16.6917 18.6843 16.6647 18.718C16.6444 18.6978 16.597 18.6707 16.6037 18.6571C16.6105 18.6233 16.6376 18.5895 16.6647 18.576C16.6782 18.5625 16.712 18.5963 16.7526 18.6166Z" fill="#FAAF5C"/>
<path d="M17.8824 16.5734C17.8756 16.4922 17.923 16.472 17.9838 16.5058C18.038 16.5396 18.0786 16.5937 18.1598 16.6681C18.038 16.6208 17.9568 16.5937 17.8824 16.5734Z" fill="#FAAF5C"/>
<path d="M19.2692 16.6885C19.1677 16.702 19.1474 16.6276 19.1068 16.5397C19.2218 16.5464 19.276 16.587 19.2692 16.6885Z" fill="#FAAF5C"/>
<path d="M14.994 16.4111C14.879 16.4585 14.8587 16.3773 14.8046 16.3029C14.9264 16.33 14.9264 16.33 14.994 16.4111Z" fill="#FAAF5C"/>
<path d="M14.8114 14.9636C14.791 14.9636 14.7708 14.9771 14.7505 14.9704C14.7167 14.9569 14.6828 14.9298 14.6558 14.9096C14.6558 14.9096 14.6625 14.8757 14.6693 14.8757C14.7099 14.8824 14.7437 14.8892 14.7843 14.896C14.8047 14.9028 14.8249 14.9096 14.8385 14.9231C14.8317 14.9366 14.8249 14.9501 14.8114 14.9636Z" fill="#FAAF5C"/>
<path d="M14.6827 19.6449C14.6963 19.6584 14.703 19.6652 14.703 19.672C14.6963 19.7194 14.6827 19.7667 14.676 19.8208C14.6625 19.814 14.6422 19.8208 14.6422 19.8072C14.6015 19.7396 14.6015 19.6855 14.6827 19.6449Z" fill="#FAAF5C"/>
<path d="M11.2126 17.595C11.1855 17.649 11.1518 17.71 11.1246 17.764C11.1111 17.6829 11.0706 17.595 11.2126 17.595Z" fill="#FAAF5C"/>
<path d="M8.50659 17.4595C8.51336 17.446 8.51336 17.4325 8.52689 17.4257C8.56747 17.3986 8.61484 17.3716 8.66219 17.3445C8.66895 17.3581 8.68247 17.3783 8.67571 17.3783C8.62836 17.4189 8.58101 17.4595 8.53366 17.5001C8.52689 17.4798 8.52012 17.473 8.50659 17.4595Z" fill="#FAAF5C"/>
<path d="M17.6053 17.4661C17.5985 17.4661 17.5918 17.4728 17.585 17.4728C17.5443 17.4458 17.5105 17.4119 17.47 17.3781L17.4903 17.3511C17.5376 17.3713 17.5782 17.3984 17.6255 17.4254C17.6188 17.439 17.612 17.4526 17.6053 17.4661Z" fill="#FAAF5C"/>
<path d="M7.94509 17.8248C7.93833 17.8451 7.93156 17.8586 7.93156 17.8586C7.88421 17.8721 7.83686 17.8789 7.78951 17.8925C7.78951 17.8789 7.78274 17.8653 7.78951 17.8518C7.82333 17.7842 7.87744 17.7707 7.94509 17.8248Z" fill="#FAAF5C"/>
<path d="M15.3863 18.8397C15.3254 18.8938 15.2713 18.9412 15.1833 19.0156C15.2037 18.887 15.2915 18.86 15.339 18.7924C15.3592 18.8127 15.3728 18.8262 15.3863 18.8397Z" fill="#FAAF5C"/>
<path d="M12.0514 17.899C12.0446 17.9803 12.0446 18.0412 12.0378 18.1427C11.9296 18.0277 11.9228 17.9667 12.0514 17.899Z" fill="#FAAF5C"/>
<path d="M12.7617 16.993C12.7617 17.0472 12.7684 17.108 12.7617 17.1622C12.7617 17.1825 12.7211 17.196 12.694 17.2095C12.6805 17.1825 12.6534 17.1419 12.6602 17.1284C12.6872 17.0742 12.7279 17.0404 12.7617 16.993Z" fill="#FAAF5C"/>
<path d="M18.8972 17.1284C18.9378 17.054 18.9784 16.9796 19.0257 16.9052L19.0189 16.912C19.0392 16.939 19.0596 16.9593 19.0798 16.9863C19.0189 17.027 18.9513 17.0743 18.8972 17.1284Z" fill="#FAAF5C"/>
<path d="M16.3875 18.6572C16.347 18.691 16.3132 18.7113 16.2861 18.7316C16.2726 18.7113 16.2455 18.6842 16.2523 18.664C16.2658 18.6369 16.2928 18.6098 16.32 18.5963C16.3335 18.5963 16.3605 18.6301 16.3875 18.6572Z" fill="#FAAF5C"/>
<path d="M11.5168 18.5282C11.483 18.5687 11.4559 18.6094 11.4086 18.6769C11.3816 18.5619 11.4154 18.5214 11.5168 18.5282Z" fill="#FAAF5C"/>
<path d="M10.4481 15.2206C10.4752 15.2477 10.4955 15.2747 10.509 15.295C10.509 15.3018 10.4752 15.3356 10.4752 15.3356C10.4481 15.3153 10.4211 15.2882 10.394 15.2679C10.4076 15.2544 10.4211 15.2409 10.4481 15.2206Z" fill="#FAAF5C"/>
<path d="M16.4415 15.2952C16.4077 15.2615 16.374 15.2209 16.3469 15.187C16.3469 15.187 16.3604 15.1667 16.3672 15.1532C16.4077 15.187 16.4552 15.2141 16.4957 15.2479C16.4754 15.2615 16.4619 15.2817 16.4415 15.2952Z" fill="#FAAF5C"/>
<path d="M15.1159 15.3423C15.1159 15.3963 15.1159 15.4573 15.1159 15.5113C15.0414 15.4302 15.0414 15.4302 15.1159 15.3423Z" fill="#FAAF5C"/>
<path d="M11.6521 16.4247C11.6994 16.3842 11.7401 16.3504 11.7806 16.3165C11.7941 16.3436 11.8076 16.3571 11.8009 16.3639C11.7874 16.4315 11.7603 16.4856 11.6521 16.4247Z" fill="#FAAF5C"/>
<path d="M12.7682 16.993C12.7615 16.9659 12.7479 16.9389 12.7479 16.9118C12.7479 16.8848 12.7682 16.8578 12.7818 16.8306C12.7886 16.8239 12.8359 16.8374 12.8359 16.8509C12.8359 16.878 12.8359 16.9118 12.8224 16.9389C12.8089 16.9659 12.7818 16.9728 12.7682 16.993Z" fill="#FAAF5C"/>
<path d="M17.5982 17.0536C17.5712 16.9927 17.5374 16.9318 17.4901 16.8303C17.6051 16.8912 17.6456 16.9453 17.6456 17.0265C17.6321 17.04 17.6186 17.0468 17.5982 17.0536Z" fill="#FAAF5C"/>
<path d="M10.1438 16.0933C10.1168 16.0459 10.0897 16.0189 10.0897 15.9919C10.0897 15.9715 10.1168 15.9512 10.1303 15.9309C10.1505 15.958 10.1776 15.9782 10.1843 16.0054C10.198 16.0189 10.1708 16.0459 10.1438 16.0933Z" fill="#FAAF5C"/>
<path d="M13.8575 18.3052C13.8777 18.2577 13.8777 18.2172 13.898 18.2104C13.925 18.1969 13.9589 18.1969 13.9927 18.1902C13.9792 18.2172 13.9792 18.251 13.9589 18.2714C13.9387 18.2916 13.9048 18.2916 13.8575 18.3052Z" fill="#FAAF5C"/>
<path d="M6.88298 18.2379C6.84239 18.2311 6.80181 18.2311 6.76121 18.2176C6.75446 18.2176 6.75446 18.1838 6.75446 18.1635C6.80181 18.1635 6.84916 18.1635 6.89651 18.1635C6.89651 18.1906 6.88974 18.2108 6.88298 18.2379Z" fill="#FAAF5C"/>
<path d="M8.53351 16.1878C8.56057 16.1471 8.58763 16.1133 8.61468 16.0728C8.68233 16.0998 8.6688 16.1269 8.53351 16.1878Z" fill="#FAAF5C"/>
<path d="M11.7808 16.9659C11.7402 17.0539 11.7199 17.1013 11.6861 17.1756C11.6725 17.0539 11.6725 17.0539 11.7808 16.9659Z" fill="#FAAF5C"/>
<path d="M15.2781 15.6535C15.3255 15.6061 15.3728 15.5655 15.4202 15.5182C15.427 15.5249 15.4405 15.5384 15.4473 15.5452C15.3998 15.5926 15.3525 15.6399 15.3052 15.6873C15.2985 15.6737 15.2848 15.667 15.2781 15.6535Z" fill="#FAAF5C"/>
<path d="M16.6648 16.8646C16.6513 16.8984 16.6445 16.939 16.6242 16.9729C16.6242 16.9729 16.5836 16.9594 16.5566 16.9526C16.5768 16.9187 16.5971 16.8782 16.6174 16.8444C16.6377 16.8511 16.6513 16.8579 16.6648 16.8646Z" fill="#FAAF5C"/>
<path d="M14.0062 16.5195C14.0536 16.4451 14.0874 16.3977 14.128 16.3301C14.1415 16.4519 14.1415 16.4519 14.0062 16.5195Z" fill="#FAAF5C"/>
<path d="M18.6538 16.2964C18.7756 16.3708 18.6674 16.4181 18.6538 16.479C18.6538 16.4181 18.6538 16.3572 18.6538 16.2964Z" fill="#FAAF5C"/>
<path d="M17.6593 16.4381C17.6931 16.4719 17.7202 16.5058 17.754 16.5396C17.7338 16.5464 17.7135 16.5666 17.7067 16.5666C17.6728 16.5464 17.6458 16.5193 17.6188 16.4923C17.6323 16.4652 17.6458 16.4516 17.6593 16.4381Z" fill="#FAAF5C"/>
<path d="M16.7054 16.614C16.6716 16.6682 16.6378 16.7223 16.604 16.7764C16.5905 16.6682 16.5905 16.6682 16.7054 16.614Z" fill="#FAAF5C"/>
<path d="M6.35553 18.9477C6.41641 18.9275 6.46376 18.9072 6.52465 18.8868C6.46376 18.9815 6.46376 18.9815 6.35553 18.9477Z" fill="#FAAF5C"/>
<path d="M5.25277 17.7773C5.30012 17.8112 5.35424 17.845 5.41512 17.8855C5.29336 17.9262 5.26629 17.8585 5.22571 17.8112C5.23247 17.8044 5.23924 17.7909 5.25277 17.7773Z" fill="#FAAF5C"/>
<path d="M17.9774 15.6938C17.9571 15.6397 17.8083 15.5991 17.9638 15.5111C17.9706 15.5788 17.9774 15.6397 17.9774 15.6938Z" fill="#FAAF5C"/>
<path d="M15.8531 17.6492C15.8531 17.6965 15.8463 17.7439 15.8463 17.8183C15.7652 17.7439 15.7584 17.6965 15.8531 17.6492Z" fill="#FAAF5C"/>
<path d="M15.9613 18.718C15.9275 18.7383 15.887 18.7585 15.8531 18.7721L15.8261 18.7247C15.8599 18.6976 15.8937 18.6773 15.9275 18.6571C15.9411 18.6841 15.9546 18.7044 15.9613 18.718Z" fill="#FAAF5C"/>
<path d="M7.80988 18.488C7.83694 18.4475 7.87076 18.4001 7.89782 18.3595C7.91135 18.3663 7.93164 18.3798 7.93164 18.3866C7.90459 18.434 7.87752 18.4745 7.85047 18.5218C7.83694 18.5016 7.82341 18.4948 7.80988 18.488Z" fill="#FAAF5C"/>
<path d="M16.7325 16.3298C16.7392 16.2824 16.746 16.2419 16.7527 16.1877C16.8137 16.2419 16.8137 16.2419 16.7325 16.3298Z" fill="#FAAF5C"/>
<path d="M17.0165 15.9646C17.0301 16.0051 17.0436 16.0323 17.0369 16.0526C17.0301 16.0728 17.003 16.0863 16.9895 16.0999C16.9759 16.0796 16.9557 16.0593 16.9557 16.039C16.9557 16.0119 16.9827 15.9984 17.0165 15.9646Z" fill="#FAAF5C"/>
<path d="M17.2938 16.0255C17.2465 16.0188 17.1991 16.012 17.1518 16.012C17.2194 15.9105 17.2194 15.9105 17.2938 16.0255Z" fill="#FAAF5C"/>
<path d="M18.7077 15.9985C18.6874 15.9512 18.6671 15.9038 18.6468 15.8565C18.6671 15.8497 18.6941 15.8429 18.6941 15.8429C18.7077 15.8903 18.728 15.9377 18.7415 15.985C18.7348 15.9917 18.7213 15.9917 18.7077 15.9985Z" fill="#FAAF5C"/>
<path d="M15.5689 15.9039C15.5351 15.8904 15.5012 15.8769 15.4674 15.8565C15.4674 15.8565 15.4809 15.8227 15.4877 15.8092C15.5216 15.8227 15.5554 15.843 15.5892 15.8565C15.5824 15.8701 15.5756 15.8836 15.5689 15.9039Z" fill="#FAAF5C"/>
<path d="M13.8912 15.8632C13.8642 15.8429 13.8371 15.8226 13.8371 15.8158C13.8506 15.7888 13.8642 15.7618 13.8844 15.7415C13.898 15.755 13.9251 15.7685 13.9251 15.7753C13.9183 15.8023 13.9048 15.8293 13.8912 15.8632Z" fill="#FAAF5C"/>
<path d="M16.7596 15.6466C16.7326 15.6738 16.7123 15.6873 16.692 15.7076C16.6717 15.6805 16.6514 15.6602 16.6379 15.6331C16.6311 15.6196 16.6649 15.5993 16.6785 15.579C16.6988 15.5993 16.7258 15.6196 16.7596 15.6466Z" fill="#FAAF5C"/>
<path d="M15.3254 18.2984C15.3727 18.2984 15.4134 18.2916 15.4742 18.2916C15.3997 18.3728 15.3997 18.3728 15.3254 18.2984Z" fill="#FAAF5C"/>
<path d="M14.9533 17.0199C14.8856 17.0402 14.8314 17.0537 14.7571 17.074C14.8179 16.9793 14.8653 16.9522 14.9533 17.0199Z" fill="#FAAF5C"/>
<path d="M7.81665 17.6221C7.85725 17.6086 7.89783 17.6018 7.93842 17.5883C7.94518 17.6018 7.94518 17.6154 7.95195 17.6289C7.91136 17.6424 7.87753 17.6559 7.83695 17.6762C7.83018 17.6627 7.82342 17.6424 7.81665 17.6221Z" fill="#FAAF5C"/>
<path d="M9.57538 17.2366C9.55508 17.2637 9.54155 17.284 9.52803 17.3042C9.5145 17.2907 9.4942 17.2772 9.4942 17.2637C9.4942 17.2366 9.50773 17.2163 9.5145 17.1892C9.5348 17.2027 9.54832 17.2163 9.57538 17.2366Z" fill="#FAAF5C"/>
<path d="M12.2678 17.6423C12.2542 17.6693 12.2475 17.6829 12.2407 17.6896C12.2204 17.71 12.1934 17.7303 12.1731 17.7438C12.1663 17.7303 12.1528 17.7167 12.1528 17.71C12.1799 17.6829 12.2069 17.6558 12.234 17.6355C12.234 17.6355 12.2475 17.6423 12.2678 17.6423Z" fill="#FAAF5C"/>
<path d="M15.5283 19.2588C15.4336 19.1979 15.4404 19.1235 15.5012 19.0085C15.5148 19.1167 15.5216 19.1912 15.5283 19.2588Z" fill="#FAAF5C"/>
<path d="M9.77844 18.3324C9.81908 18.2986 9.85961 18.2716 9.91376 18.2242C9.90695 18.2581 9.91376 18.2851 9.90025 18.2919C9.86642 18.3189 9.83259 18.3392 9.79876 18.3596C9.79196 18.3528 9.78525 18.3392 9.77844 18.3324Z" fill="#FAAF5C"/>
<path d="M12.8833 18.0347C12.8495 18.0211 12.8157 18.0143 12.7819 18.0008C12.7887 17.9805 12.7955 17.967 12.8022 17.9468C12.836 17.9603 12.8698 17.9738 12.9037 17.9805C12.8902 18.0076 12.8833 18.0211 12.8833 18.0347Z" fill="#FAAF5C"/>
<path d="M15.5215 19.2657C15.5891 19.259 15.6568 19.2522 15.677 19.3672C15.6027 19.3537 15.562 19.3131 15.5215 19.2657Z" fill="#FAAF5C"/>
<path d="M16.2251 17.9262C16.1913 17.9533 16.1642 17.9736 16.1371 17.9871C16.1371 17.9871 16.1033 17.96 16.1101 17.9465C16.1236 17.9195 16.1439 17.8924 16.1574 17.8654C16.1778 17.8789 16.1981 17.8992 16.2251 17.9262Z" fill="#FAAF5C"/>
<path d="M16.144 16.9656C16.1508 16.898 16.1643 16.8371 16.1711 16.7694C16.1846 16.7694 16.1981 16.7762 16.2116 16.7762C16.2049 16.8439 16.1981 16.9047 16.1846 16.9724C16.1778 16.9724 16.1643 16.9656 16.144 16.9656Z" fill="#FAAF5C"/>
<path d="M16.462 18.1699C16.5026 18.1631 16.5364 18.1496 16.577 18.1428C16.5838 18.1564 16.5838 18.1699 16.5906 18.1835C16.5568 18.197 16.5161 18.2105 16.4823 18.224C16.4756 18.2038 16.4688 18.1903 16.462 18.1699Z" fill="#FAAF5C"/>
<path d="M13.5193 18.887C13.4855 18.8937 13.4583 18.914 13.4516 18.9073C13.4313 18.887 13.4178 18.8599 13.4043 18.8328C13.4245 18.8328 13.4448 18.8193 13.4583 18.8261C13.4787 18.8328 13.4922 18.8532 13.5193 18.887Z" fill="#FAAF5C"/>
<path d="M8.69604 18.5013C8.69604 18.5419 8.70281 18.5825 8.70281 18.6163C8.68928 18.6163 8.66899 18.6163 8.66899 18.6095C8.66222 18.5757 8.65546 18.5352 8.65546 18.5013C8.66222 18.5013 8.67575 18.5013 8.69604 18.5013Z" fill="#FAAF5C"/>
<path d="M10.5562 18.6842C10.5224 18.7044 10.4887 18.7247 10.4548 18.745C10.448 18.7382 10.4412 18.7247 10.4345 18.718C10.4683 18.6909 10.5022 18.6706 10.536 18.6436C10.5427 18.6571 10.5495 18.6706 10.5562 18.6842Z" fill="#FAAF5C"/>
<path d="M13.5937 18.5822C13.614 18.6498 13.6343 18.6904 13.6614 18.7648C13.5802 18.7108 13.5532 18.6701 13.5937 18.5822Z" fill="#FAAF5C"/>
<path d="M8.96661 15.8228C8.9869 15.789 9.00043 15.7551 9.02072 15.7213C9.03425 15.728 9.05455 15.7416 9.04778 15.7416C9.03425 15.7755 9.01396 15.8093 9.00043 15.843C8.9869 15.8363 8.97337 15.8295 8.96661 15.8228Z" fill="#FAAF5C"/>
<path d="M16.7121 16.6208C16.7121 16.5599 16.7121 16.4991 16.7121 16.4449C16.7256 16.4449 16.7324 16.4381 16.7459 16.4381C16.7594 16.4652 16.7866 16.4991 16.773 16.5193C16.7594 16.5531 16.7324 16.5802 16.7121 16.6208Z" fill="#FAAF5C"/>
<path d="M13.1404 16.4383C13.1202 16.418 13.0999 16.4045 13.0864 16.391C13.1134 16.3775 13.1404 16.3572 13.1675 16.3437C13.1742 16.3369 13.1879 16.3504 13.2014 16.3572C13.1879 16.391 13.1675 16.4113 13.1404 16.4383Z" fill="#FAAF5C"/>
<path d="M17.2736 16.3029C17.2736 16.3435 17.2736 16.384 17.2736 16.4247C17.2668 16.4247 17.2533 16.4247 17.2465 16.4247C17.2465 16.384 17.2465 16.3435 17.2465 16.3029C17.2533 16.3029 17.2601 16.3029 17.2736 16.3029Z" fill="#FAAF5C"/>
<path d="M17.5374 16.4989C17.5104 16.5193 17.49 16.5463 17.4832 16.5395C17.4562 16.526 17.4359 16.4989 17.4089 16.4786C17.4224 16.4651 17.4427 16.438 17.4427 16.4448C17.4765 16.4583 17.5036 16.4786 17.5374 16.4989Z" fill="#FAAF5C"/>
<path d="M8.40509 16.9185C8.37803 16.8847 8.35098 16.8577 8.32391 16.8238C8.33745 16.8103 8.35774 16.79 8.37126 16.7765C8.39156 16.8103 8.41863 16.8509 8.43891 16.8847C8.42539 16.8982 8.41186 16.905 8.40509 16.9185Z" fill="#FAAF5C"/>
<path d="M16.7799 15.1326C16.7528 15.1529 16.7393 15.1732 16.719 15.1867C16.7055 15.1665 16.6852 15.1461 16.6785 15.1191C16.6785 15.1055 16.7055 15.092 16.719 15.0718C16.7393 15.092 16.7596 15.1123 16.7799 15.1326Z" fill="#FAAF5C"/>
<path d="M5.47584 17.4599C5.45555 17.4666 5.44201 17.4802 5.42849 17.4802C5.41496 17.4802 5.40819 17.4531 5.40143 17.4395C5.42173 17.4328 5.43525 17.426 5.45555 17.426C5.46231 17.426 5.46908 17.4463 5.47584 17.4599Z" fill="#FAAF5C"/>
<path d="M17.2805 17.5611C17.2603 17.5408 17.2332 17.5273 17.2332 17.5138C17.2332 17.4935 17.2467 17.4731 17.2603 17.4596C17.267 17.4528 17.3008 17.4731 17.3008 17.4799C17.3008 17.5003 17.294 17.5273 17.2805 17.5611Z" fill="#FAAF5C"/>
<path d="M15.9816 17.8317C15.9951 17.8655 16.0087 17.8926 16.0222 17.9264C16.0087 17.9332 15.9884 17.94 15.9748 17.9467C15.968 17.9128 15.9613 17.879 15.9545 17.8452C15.9613 17.8317 15.9748 17.8317 15.9816 17.8317Z" fill="#FAAF5C"/>
<path d="M12.9645 17.9668C12.951 17.933 12.9307 17.906 12.9374 17.8991C12.951 17.8789 12.9712 17.8653 12.9916 17.8518C12.9984 17.8653 13.0186 17.8856 13.0119 17.8991C13.0119 17.9195 12.9916 17.933 12.9645 17.9668Z" fill="#FAAF5C"/>
<path d="M15.3052 16.9458C15.2782 16.9661 15.2579 16.9796 15.2376 16.9931C15.2308 16.9796 15.2105 16.9593 15.2105 16.9525C15.224 16.9323 15.2443 16.9188 15.2647 16.9052C15.2647 16.912 15.285 16.9323 15.3052 16.9458Z" fill="#FAAF5C"/>
<path d="M13.0727 16.702C13.0997 16.7088 13.1268 16.7223 13.1606 16.7291C13.1539 16.7427 13.1471 16.763 13.1471 16.763C13.1201 16.7562 13.0929 16.7494 13.0592 16.7427C13.0592 16.7291 13.0659 16.7155 13.0727 16.702Z" fill="#FAAF5C"/>
<path d="M8.75682 16.7358C8.77035 16.7562 8.78388 16.7697 8.79064 16.7832C8.77711 16.7967 8.75682 16.8102 8.74329 16.8102C8.72976 16.8102 8.71623 16.7899 8.7027 16.7764C8.723 16.7629 8.73653 16.7494 8.75682 16.7358Z" fill="#FAAF5C"/>
<path d="M11.3546 16.7831C11.3614 16.8101 11.3681 16.8304 11.3614 16.8507C11.3546 16.8643 11.3342 16.8711 11.3207 16.8846C11.314 16.8643 11.3004 16.8439 11.3072 16.8304C11.3072 16.8169 11.3342 16.8034 11.3546 16.7831Z" fill="#FAAF5C"/>
<path d="M7.19414 17.1893C7.16032 17.2164 7.13325 17.2502 7.09943 17.2773C7.0859 17.2638 7.07237 17.257 7.05884 17.2435C7.0859 17.2096 7.11296 17.1758 7.14002 17.142C7.16032 17.1555 7.17384 17.169 7.19414 17.1893Z" fill="#FAAF5C"/>
<path d="M12.1798 18.7992C12.1662 18.7654 12.1527 18.7315 12.1392 18.6977C12.1595 18.6909 12.1731 18.6909 12.1934 18.6842C12.2001 18.718 12.2069 18.7586 12.2069 18.7924C12.2001 18.7924 12.1866 18.7992 12.1798 18.7992Z" fill="#FAAF5C"/>
<path d="M6.97791 18.826C7.00496 18.799 7.03202 18.7652 7.05908 18.738C7.06584 18.7448 7.07261 18.7516 7.08614 18.7584C7.06584 18.7922 7.03879 18.826 7.01849 18.8598C7.00496 18.8463 6.99144 18.8328 6.97791 18.826Z" fill="#FAAF5C"/>
<path d="M4.99573 18.4677C5.02955 18.4542 5.06338 18.4475 5.10396 18.434C5.10396 18.434 5.11073 18.4542 5.11749 18.4677C5.07691 18.4745 5.04308 18.4813 5.00249 18.488C4.99573 18.488 4.99573 18.4745 4.99573 18.4677Z" fill="#FAAF5C"/>
<path d="M5.07004 17.9539C5.0971 17.9877 5.1174 18.0012 5.1174 18.0147C5.1174 18.035 5.10387 18.0621 5.0971 18.0824C5.08357 18.0689 5.06328 18.0553 5.05652 18.0417C5.05652 18.0215 5.07004 18.0012 5.07004 17.9539Z" fill="#FAAF5C"/>
<path d="M14.4866 17.9466C14.5001 17.9263 14.5069 17.9128 14.5204 17.8925C14.534 17.8993 14.561 17.906 14.561 17.9195C14.561 17.9331 14.5475 17.9533 14.5407 17.9669C14.5204 17.9669 14.5069 17.9601 14.4866 17.9466Z" fill="#FAAF5C"/>
<path d="M15.5824 18.1564C15.6096 18.1902 15.6298 18.2105 15.6298 18.2307C15.6298 18.2511 15.6028 18.2714 15.5892 18.2917C15.5757 18.2714 15.5621 18.2443 15.5554 18.2172C15.5554 18.2105 15.5689 18.1902 15.5824 18.1564Z" fill="#FAAF5C"/>
<path d="M14.3851 15.2276C14.3647 15.2344 14.3444 15.2479 14.3444 15.2479C14.3309 15.2276 14.3174 15.2006 14.3039 15.1803C14.3174 15.1735 14.3309 15.1667 14.3377 15.1667C14.358 15.1803 14.3716 15.2073 14.3851 15.2276Z" fill="#FAAF5C"/>
<path d="M17.9637 16.3707C17.9637 16.4316 17.9637 16.4925 17.9637 16.5467L17.9705 16.5399C17.8758 16.4654 17.8758 16.4587 17.9637 16.3707Z" fill="#FAAF5C"/>
<path d="M9.83925 16.5534C9.82574 16.5332 9.80542 16.5129 9.80542 16.4994C9.80542 16.4859 9.83245 16.4723 9.84596 16.4587C9.85957 16.4723 9.87979 16.4859 9.87979 16.4994C9.87979 16.5196 9.85957 16.5332 9.83925 16.5534Z" fill="#FAAF5C"/>
<path d="M17.7606 16.1C17.7404 16.0933 17.7268 16.0933 17.7201 16.0865C17.7336 16.0661 17.7471 16.0391 17.7606 16.0188C17.7606 16.0188 17.7809 16.0256 17.7945 16.0323C17.7809 16.0594 17.7674 16.0797 17.7606 16.1Z" fill="#FAAF5C"/>
<path d="M14.3919 19.2255C14.3852 19.239 14.3649 19.2593 14.3513 19.2729C14.3445 19.2593 14.3242 19.239 14.3242 19.2322C14.3377 19.2119 14.3513 19.1917 14.3716 19.1714C14.3852 19.1917 14.3852 19.1984 14.3919 19.2255Z" fill="#FAAF5C"/>
<path d="M15.1496 16.3027C15.1293 16.2756 15.1225 16.2689 15.1157 16.2621C15.1293 16.2486 15.1496 16.2351 15.1632 16.2216C15.1699 16.2351 15.1767 16.2418 15.1767 16.2554C15.1699 16.2689 15.1632 16.2824 15.1496 16.3027Z" fill="#FAAF5C"/>
<path d="M15.3997 16.2014C15.4132 16.2284 15.4268 16.2488 15.4268 16.2555C15.42 16.2691 15.3997 16.2758 15.3862 16.2893C15.3795 16.2758 15.3658 16.2623 15.3658 16.2555C15.3726 16.2352 15.3862 16.2216 15.3997 16.2014Z" fill="#FAAF5C"/>
<path d="M12.0784 16.4317C12.0649 16.4453 12.0581 16.452 12.0446 16.4588C12.0378 16.4453 12.0311 16.4249 12.0243 16.4114C12.0243 16.4114 12.0311 16.4046 12.0378 16.3978C12.0514 16.4114 12.0649 16.4249 12.0784 16.4317Z" fill="#FAAF5C"/>
<path d="M17.2872 16.0255C17.321 16.0322 17.3616 16.039 17.3955 16.0457C17.3887 16.0593 17.3887 16.0661 17.3819 16.0796C17.3548 16.0661 17.321 16.0457 17.2872 16.0255Z" fill="#FAAF5C"/>
<path d="M8.07358 16.9256C8.06006 16.9392 8.04652 16.946 8.03299 16.9595C8.02623 16.946 8.0127 16.9188 8.0127 16.9121C8.01946 16.8986 8.04652 16.8918 8.06006 16.885C8.06682 16.8918 8.06682 16.9053 8.07358 16.9256Z" fill="#FAAF5C"/>
<path d="M12.3692 16.885C12.3895 16.8918 12.4098 16.8986 12.4098 16.9053C12.4098 16.9256 12.4031 16.9392 12.3963 16.9595C12.3827 16.9527 12.3692 16.9527 12.3624 16.9392C12.3624 16.9256 12.3692 16.9053 12.3692 16.885Z" fill="#FAAF5C"/>
<path d="M18.4576 16.864C18.4711 16.891 18.4914 16.9181 18.505 16.9452C18.4983 16.9519 18.4914 16.9519 18.4846 16.9587C18.4576 16.9384 18.4373 16.9181 18.4103 16.8978C18.4306 16.8842 18.4441 16.8775 18.4576 16.864Z" fill="#FAAF5C"/>
<path d="M18.7823 16.9591C18.7552 16.9658 18.7349 16.9726 18.7146 16.9794C18.7146 16.9794 18.7011 16.9523 18.7011 16.9456C18.7213 16.932 18.7416 16.9185 18.762 16.9117C18.7687 16.9185 18.7687 16.932 18.7823 16.9591Z" fill="#FAAF5C"/>
<path d="M18.1803 17.0202C18.1599 17.0337 18.1532 17.0473 18.1397 17.0608C18.1261 17.0473 18.1059 17.0337 18.1059 17.0202C18.1059 17.0066 18.1261 16.9931 18.1397 16.9796C18.1532 16.9931 18.1667 16.9998 18.1803 17.0202Z" fill="#FAAF5C"/>
<path d="M15.4403 16.8099C15.4268 16.8167 15.4133 16.8167 15.3997 16.8235C15.3929 16.8032 15.3862 16.7897 15.3862 16.7694C15.3862 16.7694 15.4065 16.7626 15.4201 16.7559C15.4268 16.7762 15.4336 16.7964 15.4403 16.8099Z" fill="#FAAF5C"/>
<path d="M14.1212 16.8169C14.1144 16.8304 14.1009 16.8439 14.0874 16.8643C14.0806 16.8507 14.0671 16.8304 14.0739 16.8169C14.0739 16.8034 14.0941 16.7966 14.1009 16.7831C14.1077 16.7899 14.1144 16.8034 14.1212 16.8169Z" fill="#FAAF5C"/>
<path d="M7.83017 16.7085C7.79635 16.7018 7.76252 16.7018 7.7287 16.695C7.7287 16.6883 7.7287 16.6815 7.7287 16.668C7.76252 16.668 7.79635 16.668 7.83017 16.6747C7.83017 16.6815 7.83017 16.695 7.83017 16.7085Z" fill="#FAAF5C"/>
<path d="M14.9399 15.1528C14.9196 15.1663 14.8992 15.1799 14.8857 15.1934C14.8789 15.1799 14.8654 15.1663 14.8654 15.1596C14.8789 15.1393 14.8992 15.1258 14.9128 15.1055C14.9196 15.1258 14.9263 15.1325 14.9399 15.1528Z" fill="#FAAF5C"/>
<path d="M16.7392 15.8092C16.7459 15.843 16.7594 15.8769 16.7662 15.9107C16.7594 15.9107 16.7459 15.9174 16.7392 15.9174C16.7324 15.8836 16.7189 15.8497 16.7121 15.8159C16.7189 15.8159 16.7256 15.8092 16.7392 15.8092Z" fill="#FAAF5C"/>
<path d="M16.1846 15.9513C16.1711 15.9445 16.1508 15.9378 16.1508 15.931C16.1508 15.9175 16.1576 15.8972 16.1643 15.8837C16.1779 15.8905 16.1914 15.8905 16.1914 15.8972C16.1914 15.9108 16.1846 15.931 16.1846 15.9513Z" fill="#FAAF5C"/>
<path d="M16.4552 15.9038C16.4823 15.9106 16.5161 15.9241 16.5432 15.9309C16.5432 15.9309 16.5364 15.9512 16.5364 15.9647C16.5093 15.9512 16.4755 15.9376 16.4485 15.9241C16.4485 15.9241 16.4552 15.9106 16.4552 15.9038Z" fill="#FAAF5C"/>
<path d="M14.4393 18.4879C14.4325 18.4677 14.419 18.4541 14.419 18.4474C14.4325 18.4339 14.446 18.4203 14.4596 18.4067C14.4663 18.4203 14.4799 18.4339 14.4732 18.4406C14.4663 18.4609 14.4528 18.4744 14.4393 18.4879Z" fill="#FAAF5C"/>
<path d="M15.2917 19.496C15.2715 19.5095 15.2443 19.5163 15.224 19.5298C15.2173 19.5163 15.2105 19.496 15.2105 19.496C15.2308 19.4825 15.2511 19.469 15.2715 19.4554C15.2782 19.4622 15.285 19.4757 15.2917 19.496Z" fill="#FAAF5C"/>
<path d="M8.75018 18.1498C8.76371 18.143 8.77724 18.1363 8.79753 18.1227C8.80429 18.1363 8.81782 18.1633 8.81106 18.1633C8.79753 18.1768 8.77724 18.1768 8.7637 18.1903C8.7637 18.1768 8.75694 18.1701 8.75018 18.1498Z" fill="#FAAF5C"/>
<path d="M12.8224 18.1973C12.8021 18.2175 12.7886 18.2379 12.7683 18.2514C12.7615 18.2514 12.748 18.2447 12.7413 18.2379C12.7548 18.2175 12.7683 18.1973 12.7818 18.177C12.7818 18.1837 12.8021 18.1905 12.8224 18.1973Z" fill="#FAAF5C"/>
<path d="M6.23354 17.5818C6.22679 17.5546 6.21326 17.5411 6.21326 17.5208C6.21326 17.5073 6.23354 17.5006 6.24708 17.4938C6.25384 17.5073 6.27414 17.5276 6.26737 17.5411C6.27414 17.5546 6.24708 17.5614 6.23354 17.5818Z" fill="#FAAF5C"/>
<path d="M16.4889 17.3379C16.4686 17.3446 16.4482 17.3582 16.4212 17.3649C16.4212 17.3649 16.4009 17.3379 16.4077 17.3379C16.4279 17.3244 16.4482 17.3108 16.4686 17.2972C16.4686 17.304 16.4754 17.3176 16.4889 17.3379Z" fill="#FAAF5C"/>
<path d="M17.0774 17.4798C17.0572 17.4663 17.0504 17.4663 17.0369 17.4595C17.0504 17.4459 17.0572 17.4257 17.0774 17.4122C17.0842 17.4054 17.0977 17.4122 17.1112 17.4122C17.0977 17.4324 17.0842 17.4595 17.0774 17.4798Z" fill="#FAAF5C"/>
<path d="M15.4066 17.4798C15.393 17.4866 15.3795 17.4934 15.366 17.5002C15.3592 17.4866 15.3457 17.4663 15.339 17.4528C15.3525 17.446 15.3728 17.4393 15.3863 17.4325C15.393 17.446 15.3998 17.4663 15.4066 17.4798Z" fill="#FAAF5C"/>
<path d="M10.1165 17.0809C10.0963 17.0944 10.0826 17.1147 10.0691 17.1147C10.0556 17.1147 10.0353 17.1012 10.0218 17.0877C10.0353 17.0674 10.0556 17.0471 10.0759 17.0403C10.0759 17.0403 10.0963 17.0606 10.1165 17.0809Z" fill="#FAAF5C"/>
<path d="M15.5488 17.2294C15.5691 17.2497 15.5826 17.2632 15.5961 17.27C15.5826 17.2835 15.5758 17.297 15.5555 17.3038C15.5488 17.3038 15.5284 17.2902 15.5284 17.2835C15.5284 17.2767 15.5352 17.2565 15.5488 17.2294Z" fill="#FAAF5C"/>
<path d="M9.00056 17.304C8.98703 17.3107 8.96673 17.3311 8.96673 17.3243C8.9532 17.3107 8.93968 17.2904 8.92615 17.2702C8.93968 17.2634 8.9532 17.2566 8.95997 17.2566C8.9735 17.2702 8.98703 17.2837 9.00056 17.304Z" fill="#FAAF5C"/>
<path d="M15.1022 17.25C15.0887 17.2635 15.0819 17.277 15.0684 17.2905C15.0548 17.277 15.0345 17.2635 15.0412 17.25C15.048 17.2365 15.0684 17.2229 15.0819 17.2094C15.0819 17.2297 15.0887 17.2365 15.1022 17.25Z" fill="#FAAF5C"/>
<path d="M18.1666 16.2823C18.2141 16.2417 18.2343 16.2282 18.2614 16.2079C18.2546 16.2282 18.2478 16.2552 18.2343 16.2755C18.2276 16.2755 18.2073 16.2755 18.1666 16.2823Z" fill="#FAAF5C"/>
<path d="M16.9555 17.8383C16.969 17.8653 16.9826 17.8856 16.9758 17.8991C16.9691 17.9126 16.9488 17.9194 16.9353 17.9261C16.9285 17.9126 16.915 17.8991 16.9217 17.8923C16.9217 17.8721 16.9353 17.8585 16.9555 17.8383Z" fill="#FAAF5C"/>
<path d="M10.4141 17.9263C10.448 17.9263 10.4751 17.9263 10.5089 17.9263C10.5089 17.933 10.5089 17.9398 10.5089 17.9533C10.4751 17.9533 10.448 17.9601 10.4141 17.9601C10.4141 17.9533 10.4141 17.9398 10.4141 17.9263Z" fill="#FAAF5C"/>
<path d="M17.2533 18.0547C17.233 18.0615 17.2127 18.0682 17.1924 18.0818C17.1924 18.0682 17.1924 18.0547 17.1992 18.048C17.2127 18.0344 17.233 18.0277 17.2465 18.0142C17.2465 18.0277 17.2465 18.0344 17.2533 18.0547Z" fill="#FAAF5C"/>
<path d="M14.3107 17.541C14.3242 17.5613 14.3378 17.5884 14.331 17.5952C14.3243 17.6087 14.304 17.6222 14.2837 17.6222C14.2769 17.6222 14.2567 17.5952 14.2567 17.5816C14.2634 17.568 14.2837 17.5545 14.3107 17.541Z" fill="#FAAF5C"/>
<path d="M11.6521 17.6625C11.6386 17.676 11.6251 17.6896 11.6115 17.6963C11.6048 17.6963 11.5913 17.6896 11.5778 17.6827C11.5913 17.6692 11.598 17.6557 11.6183 17.6422C11.6183 17.6422 11.6386 17.6557 11.6521 17.6625Z" fill="#FAAF5C"/>
<path d="M15.3322 14.8753C15.3187 14.8889 15.3052 14.9024 15.3052 14.9024C15.2916 14.8956 15.2714 14.8821 15.2578 14.8686C15.2714 14.8551 15.2849 14.8348 15.2916 14.8416C15.3052 14.8483 15.3187 14.8618 15.3322 14.8753Z" fill="#FAAF5C"/>
<path d="M9.44028 5.8111C9.80646 5.8111 10.1033 5.5143 10.1033 5.14817C10.1033 4.78203 9.80646 4.48523 9.44028 4.48523C9.07415 4.48523 8.77734 4.78203 8.77734 5.14817C8.77734 5.5143 9.07415 5.8111 9.44028 5.8111Z" fill="url(#paint23_linear_293_146)"/>
<path d="M10.7864 2.14442C11.3411 0.629117 13.2623 -0.0473529 13.6681 4.44707e-08C13.6681 4.44707e-08 13.5126 0.21647 13.2488 0.507353C12.8429 0.960587 12.9781 1.36647 12.18 2.25265C11.7131 2.7803 10.7864 2.14442 10.7864 2.14442Z" fill="url(#paint24_linear_293_146)"/>
<path d="M13.438 0.0200799C13.1539 0.189198 12.9442 0.385374 12.863 0.561256C12.863 0.561256 12.403 0.703315 12.3422 0.737138C12.3422 0.737138 12.5112 0.72361 12.7007 0.71008C12.8225 0.703315 12.491 1.14979 12.491 1.14979C12.491 1.14979 12.0242 1.28508 11.8349 1.41361C11.8349 1.41361 12.1325 1.32567 12.2542 1.33919C12.3692 1.34596 12.058 1.83302 11.7537 1.77891C11.483 1.72479 11.2192 1.62332 11.0366 1.64361C10.9892 1.71802 10.9419 1.79919 10.9012 1.87361C10.9216 1.97508 10.9622 2.06979 10.9622 2.06979L11.943 2.29979L12.2137 2.21861C12.9712 1.35949 12.8495 0.960373 13.2419 0.513903C13.5057 0.223021 13.6612 0.00655052 13.6612 0.00655052C13.6139 -0.00697889 13.5395 -0.000214186 13.438 0.0200799Z" fill="url(#paint25_linear_293_146)"/>
<path d="M11.9026 1.89412C11.6523 1.98882 11.4426 1.82647 10.9826 1.725C10.9081 1.85353 10.8405 1.99559 10.7864 2.13765C10.7864 2.13765 11.7064 2.7803 12.18 2.25265C12.9781 1.36647 12.8429 0.960585 13.2488 0.507353C13.5126 0.21647 13.6681 0 13.6681 0C12.7143 0.33147 12.552 1.65059 11.9026 1.89412Z" fill="#407817"/>
<path d="M10.9215 1.96172C10.563 0.974068 8.72297 0.311129 8.12092 0.223187C7.9315 0.196129 7.99915 0.290835 8.24268 0.392305C8.49297 0.493775 9.39268 1.19054 9.44003 1.81965C9.48739 2.44878 10.9215 1.96172 10.9215 1.96172Z" fill="url(#paint26_linear_293_146)"/>
<path d="M8.24268 0.392305C8.48621 0.493775 9.35209 1.15672 9.43327 1.7723L10.4141 2.00907C10.4141 2.00907 10.7591 1.93465 10.8539 1.80613C10.8065 1.71819 10.7524 1.63701 10.6848 1.55583C10.2924 1.35965 9.72412 1.38672 9.66327 1.37319C9.60241 1.36642 9.39268 1.1026 9.44003 1.09583C9.55503 1.07554 9.85944 1.14319 9.85944 1.14319C9.75124 1.06201 9.31827 1.03495 9.31827 1.03495C9.16268 0.818482 8.9868 0.689952 9.08827 0.703482C9.18974 0.717011 9.27092 0.683187 9.27092 0.683187C9.27092 0.683187 8.9665 0.649364 8.89885 0.622305C8.83122 0.595246 8.48622 0.338187 8.12092 0.223187C7.9315 0.196129 7.99915 0.290835 8.24268 0.392305Z" fill="url(#paint27_linear_293_146)"/>
<path d="M10.9215 1.96172C10.8876 1.87378 10.8471 1.7926 10.7998 1.71819C10.1503 1.36642 9.67007 1.54907 9.50768 1.33937C9.34533 1.1229 8.87857 0.534364 8.1615 0.229952C8.14797 0.229952 8.13445 0.223187 8.12092 0.223187C7.9315 0.196129 7.99915 0.290835 8.24268 0.392305C8.49297 0.493775 9.39268 1.19054 9.44003 1.81965C9.48739 2.44878 10.9215 1.96172 10.9215 1.96172Z" fill="#407817"/>
<path d="M13.5395 4.07932C14.5813 3.89667 15.0209 3.47726 15.6771 2.92255C16.3333 2.36785 17.2059 2.13785 17.6998 2.29343C17.6998 2.29343 17.0571 1.19755 14.5339 1.22461C12.0107 1.25167 11.1989 3.2202 11.1989 3.2202L13.5395 4.07932Z" fill="url(#paint28_linear_293_146)"/>
<path d="M14.5339 1.23118C14.1754 1.23794 13.8507 1.27854 13.5531 1.35294C12.9307 1.61001 12.4301 1.86706 12.0986 2.08354C11.9294 2.22559 11.7874 2.37442 11.6657 2.50971C11.7131 2.57059 12.0581 2.67206 12.5248 2.33382C14.3444 1.01471 17.2466 1.90089 16.1371 1.40029C15.7177 1.29206 15.1901 1.22442 14.5339 1.23118Z" fill="url(#paint29_linear_293_146)"/>
<path d="M16.3673 2.00891C15.9411 2.06302 15.1429 1.82626 14.8047 1.79919C14.8047 1.79919 15.5488 2.08331 15.63 2.24566C15.63 2.24566 15.684 2.32008 15.4947 2.35391C15.3052 2.39449 14.9602 2.67861 14.9602 2.67861C14.9602 2.67861 13.9929 2.36743 13.499 2.43508C13.499 2.43508 14.4393 2.59743 14.6693 2.84096C14.8993 3.08449 13.7493 3.19949 13.7493 3.19949L14.3852 3.83537C14.8858 3.61891 15.2308 3.30773 15.6773 2.92891C16.3335 2.37419 17.2061 2.14419 17.7 2.29978C17.5105 2.06302 16.7935 1.95478 16.3673 2.00891Z" fill="url(#paint30_linear_293_146)"/>
<path d="M15.305 2.68567C14.7637 3.22685 14.155 3.40949 14.155 3.40949C13.35 2.73303 12.599 2.2392 12.0578 2.11743C11.9225 2.11743 11.97 2.19861 11.9293 2.2392C12.5652 2.52331 13.4311 3.09831 14.1955 3.91685C14.8043 3.69361 15.1763 3.35538 15.677 2.93596C16.3332 2.38126 17.2058 2.15126 17.6996 2.30685C17.1043 1.96861 15.8461 2.14449 15.305 2.68567Z" fill="#407817"/>
<path d="M10.6849 2.19198L10.7593 1.88757C10.7593 1.88757 10.4414 1.74551 9.9408 1.63051C9.64314 1.52227 9.24404 1.43434 8.70287 1.40051C6.20668 1.23139 4.79286 3.52462 4.66433 3.71404C4.5358 3.89669 4.59668 3.97786 4.59668 3.97786L5.2055 3.67345C6.47727 3.20669 7.72198 3.78845 7.72198 3.78845L9.0411 3.32169L10.7458 2.75345C10.7458 2.75345 10.8473 2.48962 10.6849 2.19198Z" fill="url(#paint31_linear_293_146)"/>
<path d="M5.2055 3.6732C6.47727 3.20643 7.72198 3.7882 7.72198 3.7882L9.0411 3.32143L10.7458 2.7532C10.7458 2.7532 10.8473 2.48261 10.6917 2.18496L10.7661 1.88055C10.7661 1.88055 10.5361 1.77231 10.1438 1.67761C9.77846 1.86026 9.26433 1.98878 8.58786 1.84673C7.6611 1.65055 6.18639 2.44203 5.31374 2.88173C4.93492 3.29438 4.71168 3.63938 4.66433 3.71378C4.5358 3.89643 4.59668 3.97761 4.59668 3.97761L5.2055 3.6732Z" fill="url(#paint32_linear_293_146)"/>
<path d="M11.2193 2.03646C12.1731 1.99588 16.5431 4.68823 15.8193 8.74706C15.8193 8.74706 15.4743 7.85411 14.3514 7.37382C13.5193 7.01529 12.5114 6.44706 11.8688 4.78971C11.1381 2.92941 11.2193 2.03646 11.2193 2.03646Z" fill="url(#paint33_linear_293_146)"/>
<path d="M15.136 5.59438C15.6705 6.41291 15.5893 7.52909 14.9263 6.61586C14.3513 5.82438 12.518 4.60674 12.9443 2.82086C12.6534 2.61791 12.376 2.45556 12.1257 2.32703L11.226 2.36086C11.2598 2.77349 11.3884 3.57174 11.8619 4.79614C12.5113 6.4535 13.5125 7.02173 14.3445 7.38026C15.4743 7.86056 15.8125 8.75349 15.8125 8.75349C16.083 7.22468 15.6366 5.89203 14.9195 4.82321C14.8925 5.01261 14.9263 5.26967 15.136 5.59438Z" fill="url(#paint34_linear_293_146)"/>
<path d="M15.8191 8.75348C15.8327 8.66553 15.8462 8.57083 15.8598 8.48288C15.7921 7.5223 15.0886 7.50877 14.7773 7.1976C14.4662 6.88642 14.3918 5.9123 14.3918 5.9123C14.2498 6.39936 14.4527 7.02848 14.4527 7.02848C14.4527 7.02848 13.8506 6.95406 13.6273 6.39936C13.3973 5.83788 13.5598 4.58642 13.5598 4.58642C13.2756 4.972 13.4041 6.41965 13.4041 6.41965C12.836 5.76348 12.748 4.91112 12.863 4.2076C12.9441 3.68671 13.0118 3.18612 12.8021 2.7126C12.6736 2.62465 12.545 2.54347 12.4165 2.47583L12.1798 3.66642L12.1121 5.317C12.748 6.56848 13.6206 7.05553 14.358 7.36671C15.481 7.85377 15.8191 8.75348 15.8191 8.75348Z" fill="url(#paint35_linear_293_146)"/>
<path d="M10.4006 16.3977C11.713 11.6624 11.2191 8.28006 11.0635 6.07476L11.9768 4.45801C11.9768 4.45801 13.7085 10.3366 12.7006 16.3639C12.7006 16.3639 12.2271 16.1948 11.9227 16.1948C11.6183 16.1948 10.9553 16.5466 10.4006 16.3977Z" fill="url(#paint36_linear_293_146)"/>
<path d="M11.5643 7.98907C11.8146 9.63964 10.8675 15.7076 10.7796 16.0729C10.6917 16.4382 11.1178 16.1608 11.4696 15.7346C11.8213 15.3017 11.517 14.8214 11.6658 13.3941C11.8146 11.9667 12.0785 8.30025 11.8417 7.72525C11.5981 7.15025 11.3343 6.4873 11.5643 7.98907Z" fill="url(#paint37_linear_293_146)"/>
<path d="M11.9769 4.45105L11.1312 6.89311C11.1786 7.44105 11.226 8.04311 11.253 8.71282C12.8765 7.299 12.3557 8.34076 12.2812 10.5867C12.2474 11.6758 11.9362 15.234 12.2136 16.2217C12.4301 16.2622 12.633 16.3367 12.6804 16.3502H12.6872H12.6939C13.7086 10.3296 11.9769 4.45105 11.9769 4.45105Z" fill="url(#paint38_linear_293_146)"/>
<path d="M12.9103 9.90303C12.8968 9.7542 12.8833 9.61218 12.8698 9.47009C12.4639 9.96388 11.8686 10.4645 11.2733 10.4712C11.2733 10.5389 11.2733 10.5998 11.2665 10.6674C11.5439 10.6945 12.0783 10.6065 12.9103 9.90303Z" fill="url(#paint39_linear_293_146)"/>
<path d="M11.2665 8.97653C11.2665 9.04418 11.2733 9.11859 11.2733 9.18624C11.6048 9.13212 12.2271 8.92918 12.7209 8.158C12.7006 8.00241 12.6736 7.84683 12.6533 7.698C12.4841 8.17153 11.8551 8.733 11.2665 8.97653Z" fill="url(#paint40_linear_293_146)"/>
<path d="M12.9915 11.1884C12.403 11.6754 11.9768 11.8513 11.1988 12.0002C11.1921 12.0542 11.1921 12.1084 11.1853 12.1557C12.0309 12.1354 12.6803 11.7904 13.0051 11.5672C13.0051 11.4454 12.9983 11.3169 12.9915 11.1884Z" fill="url(#paint41_linear_293_146)"/>
<path d="M12.8563 15.2473C12.8698 15.1051 12.8833 14.9699 12.8968 14.8346C12.3489 15.1661 11.3409 15.4366 10.6306 15.4908C10.6103 15.5719 10.5901 15.6464 10.5698 15.7276C11.5506 15.7613 12.5248 15.3893 12.8563 15.2473Z" fill="url(#paint42_linear_293_146)"/>
<path d="M12.9983 13.3464C13.005 13.1773 13.0118 13.015 13.0118 12.8458L13.005 12.8526C12.6668 13.2382 11.9294 13.847 10.9756 13.7997C10.9621 13.8605 10.9553 13.9282 10.9418 13.989C11.8211 14.165 12.7141 13.5629 12.9983 13.3464Z" fill="url(#paint43_linear_293_146)"/>
<path d="M11.1921 7.68427C11.1989 7.73839 11.1989 7.79927 11.2056 7.85339C11.6115 7.73839 12.1527 7.46104 12.5044 6.7981C12.4841 6.6831 12.4639 6.57487 12.4436 6.47339C12.2339 6.8928 11.8754 7.37986 11.1921 7.68427Z" fill="url(#paint44_linear_293_146)"/>
<path d="M6.15912 10.1605C6.74765 8.73308 7.7353 8.18514 8.36442 7.0419C8.87177 6.11514 9.16265 4.95161 9.54147 4.37661C9.9203 3.80161 9.65647 2.89514 9.65647 2.89514C9.65647 2.89514 6.0306 3.8219 5.49619 6.33838C4.96177 8.85484 6.15912 10.1605 6.15912 10.1605Z" fill="#76AB50"/>
<path d="M6.15912 10.1605C6.74765 8.73308 7.7353 8.18514 8.36442 7.0419C8.87177 6.11514 9.16265 4.95161 9.54147 4.37661C9.9203 3.80161 9.65647 2.89514 9.65647 2.89514C9.65647 2.89514 6.0306 3.8219 5.49619 6.33838C4.96177 8.85484 6.15912 10.1605 6.15912 10.1605Z" fill="url(#paint45_linear_293_146)"/>
<path d="M9.66327 2.89514C9.66327 2.89514 9.35208 2.97631 8.90561 3.1522C8.9462 3.78131 8.51325 4.36308 8.33738 4.49838C8.14796 4.65396 6.90325 5.71602 6.52443 7.14338C6.14561 8.57073 5.88178 8.82778 5.71266 7.84014C5.57738 7.04866 5.68561 5.85808 6.84238 4.30896C6.21325 4.82308 5.67884 5.48602 5.50296 6.33838C4.96855 8.84808 6.1659 10.1605 6.1659 10.1605C6.75443 8.73308 7.74208 8.18514 8.3712 7.0419C8.87855 6.11514 9.16943 4.95161 9.54826 4.37661C9.9271 3.80838 9.66327 2.89514 9.66327 2.89514Z" fill="url(#paint46_linear_293_146)"/>
<path d="M6.59899 7.1301C6.80869 7.21127 6.88987 7.89451 7.0387 8.11098C7.08605 8.18538 7.89105 7.1301 7.89105 7.1301C7.89105 7.1301 7.66105 6.20333 7.27546 5.85156C7.27546 5.85156 7.7287 6.02068 7.97222 6.54156C8.20899 7.06245 8.45929 5.71627 8.48634 5.4795C8.50664 5.24275 8.15487 4.62038 8.03311 4.49186C8.03311 4.49186 8.49987 5.03303 8.70958 4.9045C8.91929 4.77598 9.16282 4.49862 9.1087 4.07921C9.05458 3.6598 9.29134 3.13892 9.29134 3.13892L9.28458 3.8898L8.8787 5.71627L7.98575 7.54951L6.31487 9.58573L6.07134 10.1742C6.07134 10.1742 6.04429 9.22039 6.82899 8.51686L6.89664 8.13803L6.59899 7.1301Z" fill="url(#paint47_linear_293_146)"/>
<path d="M9.72415 3.88955C9.80532 3.39573 9.65649 2.89514 9.65649 2.89514C9.65649 2.89514 9.53472 2.92896 9.32502 2.99661C9.26414 3.0169 9.15589 3.62573 9.21002 4.0722C9.23031 4.22778 9.18972 4.39014 9.10854 4.52543C8.60796 5.37102 8.68237 6.3722 7.83001 7.42073C7.03854 8.39484 6.34854 9.1322 6.04413 10.0183C6.11178 10.1131 6.15237 10.1605 6.15237 10.1605C6.74089 8.73308 7.72854 8.18514 8.35766 7.0419C8.86502 6.11514 9.15589 4.95161 9.53472 4.37661C9.62946 4.23455 9.68351 4.0722 9.71064 3.90984V3.90308C9.72415 3.90308 9.72415 3.89631 9.72415 3.88955Z" fill="#407817"/>
<path d="M15.4944 7.84704C14.9668 7.26529 13.6679 7.06234 13.2012 6.41969C12.7276 5.77704 12.4571 5.4794 12.6871 4.52557C12.8494 3.83557 12.8291 3.11852 12.6601 2.63146C12.3286 2.32028 11.9701 2.26616 11.8076 2.17822C12.1324 2.44881 12.6601 3.0644 12.5518 3.7544C12.4774 4.26175 12.3556 4.80293 12.1391 5.38469C12.7751 6.58881 13.6274 7.06234 14.3579 7.37352C15.4876 7.85381 15.8259 8.74675 15.8259 8.74675C15.8394 8.65881 15.8529 8.5641 15.8664 8.47617C15.8124 8.30704 15.7109 8.09057 15.4944 7.84704Z" fill="#407817"/>
<path d="M10.3466 8.34753C10.9351 7.56958 9.41302 6.14223 9.41302 4.26164C9.41302 2.15782 10.3669 1.67753 10.7659 1.88723C10.7659 1.88723 12.5519 1.84664 12.5857 3.72723C12.6059 5.05311 11.9566 7.88076 10.3466 8.34753Z" fill="url(#paint48_linear_293_146)"/>
<path d="M11.7198 2.13098C12.0309 2.56393 12.288 3.2404 12.2474 4.26186C12.1595 6.75804 10.7118 7.52922 11.0366 6.38598C11.3274 5.37804 9.81892 3.74098 9.76477 2.44893C9.55507 2.82775 9.40625 3.40951 9.40625 4.2551C9.40625 6.13569 10.9283 7.56305 10.3398 8.34098C11.9498 7.86745 12.5991 5.03981 12.5789 3.71393C12.5654 2.82775 12.1527 2.36775 11.7198 2.13098Z" fill="url(#paint49_linear_293_146)"/>
<path d="M7.06586 3.37571C7.53938 2.61807 8.05351 2.25278 8.29026 2.19189C8.29026 2.19189 7.41762 2.81425 7.38379 3.31484" fill="url(#paint50_linear_293_146)"/>
<path d="M8.66901 0.574898C8.95989 0.561369 9.23724 0.669604 9.27106 0.683133C9.30489 0.696663 9.30489 0.723721 9.14929 0.683133C8.99371 0.642545 8.78401 0.656075 8.78401 0.656075" fill="#407817"/>
<path d="M9.16264 1.00098C9.79177 1.02804 9.94731 1.18363 9.79848 1.12951C9.65645 1.07539 9.3791 1.03481 9.25734 1.10245C9.14235 1.17686 9.16264 1.00098 9.16264 1.00098Z" fill="#407817"/>
<path d="M13.0931 0.480103C12.7346 0.513926 12.4031 0.696573 12.3626 0.716866C12.3219 0.737161 12.3288 0.777749 12.5114 0.696573C12.694 0.615396 12.9646 0.601866 12.9646 0.601866" fill="#407817"/>
<path d="M12.6534 1.07532C11.8823 1.26473 11.7334 1.49473 11.8958 1.3865C12.0581 1.28502 12.3828 1.17002 12.5588 1.22414C12.7278 1.28502 12.6534 1.07532 12.6534 1.07532Z" fill="#407817"/>
<path d="M16.2996 2.21187C15.0142 1.64364 14.5611 1.81275 14.9061 1.84657C15.2511 1.8804 15.8261 2.06304 16.0019 2.32687C16.1778 2.59069 16.2996 2.21187 16.2996 2.21187Z" fill="#407817"/>
<path d="M15.4269 2.75994C13.7762 2.1714 13.208 2.45552 13.6477 2.45552C14.0807 2.45552 14.8249 2.62464 15.0616 2.95612C15.2984 3.28758 15.4269 2.75994 15.4269 2.75994Z" fill="#407817"/>
<path d="M8.03981 7.42757C7.93158 6.1558 6.99805 5.54697 7.30923 5.91903C7.59334 6.2505 7.80981 6.91345 7.86393 7.77257C7.92481 7.69815 7.9857 7.61697 8.03981 7.54257C8.03981 7.50874 8.03981 7.46815 8.03981 7.42757Z" fill="url(#paint51_linear_293_146)"/>
<path d="M8.81091 6.07462C8.69591 5.70932 8.4862 5.11402 8.22914 4.7555C7.92473 4.32256 7.9112 4.42402 8.20885 4.94491C8.45238 5.37109 8.57414 5.96637 8.63503 6.48726C8.69591 6.35197 8.75679 6.20991 8.81091 6.07462Z" fill="url(#paint52_linear_293_146)"/>
<path d="M6.93029 8.87524C6.92353 8.11082 6.73411 7.05553 6.59882 7.12995C6.59882 7.21789 6.61235 7.30583 6.63941 7.39377C6.83558 8.02965 6.74765 8.51671 6.76793 9.09847C6.81529 9.0173 6.87617 8.94289 6.93029 8.87524Z" fill="url(#paint53_linear_293_146)"/>
<path d="M13.6681 6.82526C13.3163 6.43291 13.3433 5.28967 13.526 4.76202C13.7019 4.25467 13.1471 4.76879 13.1945 6.7035C13.3636 6.83879 13.5328 6.95379 13.7019 7.05527C13.7695 7.02821 13.7898 6.96056 13.6681 6.82526Z" fill="#407817"/>
<path d="M14.7166 7.31952C14.4121 7.08276 14.3378 6.39276 14.3986 5.98687C14.4596 5.60129 14.1281 6.04099 14.4189 7.40746C14.5271 7.45482 14.6286 7.50894 14.7234 7.56305C14.8113 7.50894 14.8586 7.42776 14.7166 7.31952Z" fill="#407817"/>
<path d="M7.99235 3.55823C7.87735 3.61911 7.75559 3.68676 7.64059 3.75441C4.71146 6.49411 6.07794 10.3026 6.07794 10.3026L6.16588 10.1606C5.23235 7.27881 6.74088 4.70146 7.99235 3.55823Z" fill="url(#paint54_linear_293_146)"/>
<path d="M11.1312 2.21192C11.0433 2.08338 10.9689 1.97515 10.9012 1.8872C10.82 1.88045 10.766 1.88045 10.766 1.88045C10.7457 1.87368 10.7322 1.86692 10.7119 1.86015C10.6374 1.83309 10.5427 1.84662 10.4345 1.8872C11.1312 2.38103 11.6048 3.9572 11.4357 5.3778C11.4357 5.3778 11.9972 3.4972 11.1312 2.21192Z" fill="url(#paint55_linear_293_146)"/>
<path d="M10.9555 1.8738C10.8405 1.86703 10.7729 1.86703 10.7729 1.86703C10.7255 1.8535 10.6782 1.84673 10.624 1.83997C11.3208 2.22555 11.6861 3.76791 11.4832 5.06673C11.4832 5.08703 11.4358 5.37115 11.4358 5.37115C11.4697 5.37791 11.605 5.14115 11.6117 5.03968C11.8011 3.58526 11.402 2.44203 10.9555 1.8738Z" fill="url(#paint56_linear_293_146)"/>
<path d="M6.93043 2.23914C6.93043 2.23914 6.19308 2.76677 6.09161 3.22001C6.46367 3.15914 6.8222 3.1456 7.18073 3.17266L7.20102 3.15914C7.20102 3.15914 6.65308 3.16589 6.36897 3.05089C6.20661 2.99677 6.93043 2.23914 6.93043 2.23914Z" fill="url(#paint57_linear_293_146)"/>
<path d="M8.29011 2.19165C8.29011 2.19165 7.54599 2.72605 7.40393 3.19958C7.85716 3.24694 8.3104 3.1387 8.68246 2.87488C9.04099 2.62458 9.5754 2.25929 10.333 1.7384C9.61602 1.94135 8.62835 2.6787 8.31716 2.92223C8.00599 3.159 7.65423 3.1387 7.66775 2.95605C7.70158 2.71929 8.29011 2.19165 8.29011 2.19165Z" fill="url(#paint58_linear_293_146)"/>
<path d="M6.29462 2.04956C5.30022 2.69221 4.7455 3.59868 4.66433 3.70691C4.5358 3.88956 4.59668 3.97074 4.59668 3.97074L5.2055 3.66633C5.46257 3.57162 5.71962 3.52427 5.96315 3.50398C6.07139 3.24691 6.15933 2.99662 6.08492 2.98309C5.92933 2.96279 5.00257 3.60544 5.16492 3.29427C5.29345 3.07779 5.76698 2.48251 6.29462 2.04956Z" fill="url(#paint59_linear_293_146)"/>
<path d="M7.64068 3.75429C8.4998 3.24694 9.2845 3.17929 9.5348 3.10488C9.81219 2.1984 10.4074 1.7587 10.7119 1.86693C10.6442 1.83988 10.5157 1.79253 10.3398 1.7384C9.58215 2.25929 9.04774 2.63135 8.68922 2.87488C8.31039 3.1387 7.85039 3.24694 7.39039 3.19282C6.71392 3.1184 6.05774 3.15223 5.31362 3.42958C4.61685 3.68665 4.60333 3.97076 4.60333 3.97076L5.04303 3.74752C5.1851 3.67312 5.33392 3.61223 5.49627 3.5784C6.46362 3.34165 7.3701 3.64605 7.64068 3.75429Z" fill="#407817"/>
<path d="M5.78046 3.35531C6.22692 2.63825 6.70722 2.30002 6.93046 2.23914C6.93046 2.23914 6.11192 2.82089 6.07811 3.29442" fill="url(#paint60_linear_293_146)"/>
<path d="M10.2044 6.20997C9.87976 5.88526 9.71071 5.09379 9.71071 5.09379L9.85945 4.74203C9.85945 4.74203 9.65657 4.82997 9.58891 4.50526C9.25743 2.92232 10.0962 2.40143 10.5766 1.90085L10.5427 1.83997C10.0894 1.86026 9.41302 2.48261 9.41302 4.26173C9.41302 6.14232 10.9351 7.56968 10.3466 8.34761C10.9689 7.87408 10.5224 6.53468 10.2044 6.20997Z" fill="url(#paint61_linear_293_146)"/>
<path d="M10.3599 3.70703C10.2922 3.99791 10.0826 4.56615 9.58197 5.39821C9.60225 5.46586 9.62257 5.5335 9.64288 5.60115C9.64288 5.60115 9.82554 5.37791 9.93374 5.11409C10.1029 4.70821 10.2991 4.07909 10.3599 3.70703Z" fill="url(#paint62_linear_293_146)"/>
<path d="M9.48743 5.00594C9.51449 5.14124 9.54831 5.26976 9.58214 5.39829C10.5563 3.79506 10.4209 3.16594 10.3127 3.62594C10.2045 4.06564 9.86626 4.79624 9.48743 5.00594Z" fill="url(#paint63_linear_293_146)"/>
<path d="M10.2316 6.29789L10.0016 6.50082C10.0423 6.59553 10.0896 6.697 10.1302 6.78494C10.6511 6.19641 10.7661 5.16141 10.8066 4.86377L10.6511 5.45229L10.2316 6.29789Z" fill="url(#paint64_linear_293_146)"/>
<path d="M10.7323 4.93817C10.624 5.37787 10.2925 6.09494 9.92047 6.3114C9.96781 6.41964 10.0084 6.52112 10.0558 6.61582C10.969 5.087 10.8405 4.4917 10.7323 4.93817Z" fill="url(#paint65_linear_293_146)"/>
<path d="M11.0001 1.23118C11.6021 1.25148 11.9742 0.635883 12.5424 0.23C12.6506 0.155588 12.7318 0.0744117 12.7994 0C12.2583 0.189412 11.5142 0.595295 11.0001 1.23118Z" fill="url(#paint66_linear_293_146)"/>
</g>
</g>
<defs>
<radialGradient id="paint0_radial_293_146" cx="0" cy="0" r="1" gradientUnits="userSpaceOnUse" gradientTransform="translate(11.5255 18.7747) rotate(-1.3891) scale(8.72451 2.24193)">
<stop stop-color="white"/>
<stop offset="1" stop-color="white" stop-opacity="0"/>
</radialGradient>
<radialGradient id="paint1_radial_293_146" cx="0" cy="0" r="1" gradientUnits="userSpaceOnUse" gradientTransform="translate(14.805 18.3283) rotate(93.4705) scale(2.70101 21.6592)">
<stop stop-color="white" stop-opacity="0.5"/>
<stop offset="1" stop-color="white" stop-opacity="0"/>
</radialGradient>
<linearGradient id="paint2_linear_293_146" x1="12.9721" y1="19.2026" x2="11.3179" y2="16.322" gradientUnits="userSpaceOnUse">
<stop stop-color="#FFD87C"/>
<stop offset="0.343" stop-color="#FFD981"/>
<stop offset="0.7666" stop-color="#FFDE90"/>
<stop offset="1" stop-color="#FFE19C"/>
</linearGradient>
<radialGradient id="paint3_radial_293_146" cx="0" cy="0" r="1" gradientUnits="userSpaceOnUse" gradientTransform="translate(12.1691 15.6916) rotate(78.8728) scale(3.30909 6.41138)">
<stop stop-color="#FFCB4B"/>
<stop offset="1" stop-color="#FFA754" stop-opacity="0"/>
</radialGradient>
<radialGradient id="paint4_radial_293_146" cx="0" cy="0" r="1" gradientUnits="userSpaceOnUse" gradientTransform="translate(11.921 16.9877) rotate(-1.3891) scale(7.85069 3.91811)">
<stop stop-color="#FFCB4B"/>
<stop offset="1" stop-color="#FFA754" stop-opacity="0"/>
</radialGradient>
<radialGradient id="paint5_radial_293_146" cx="0" cy="0" r="1" gradientUnits="userSpaceOnUse" gradientTransform="translate(14.1857 14.0553) scale(3.09519 3.09553)">
<stop stop-color="#FFCB4B"/>
<stop offset="1" stop-color="#FFA754" stop-opacity="0"/>
</radialGradient>
<radialGradient id="paint6_radial_293_146" cx="0" cy="0" r="1" gradientUnits="userSpaceOnUse" gradientTransform="translate(6.13828 18.3198) scale(0.120388)">
<stop stop-color="#FFA754"/>
<stop offset="1" stop-color="#FFA754" stop-opacity="0"/>
</radialGradient>
<radialGradient id="paint7_radial_293_146" cx="0" cy="0" r="1" gradientUnits="userSpaceOnUse" gradientTransform="translate(10.3263 15.5483) scale(0.12039)">
<stop stop-color="#FFA754"/>
<stop offset="1" stop-color="#FFA754" stop-opacity="0"/>
</radialGradient>
<radialGradient id="paint8_radial_293_146" cx="0" cy="0" r="1" gradientUnits="userSpaceOnUse" gradientTransform="translate(8.8142 16.589) scale(0.10392)">
<stop stop-color="#FFA754"/>
<stop offset="1" stop-color="#FFA754" stop-opacity="0"/>
</radialGradient>
<radialGradient id="paint9_radial_293_146" cx="0" cy="0" r="1" gradientUnits="userSpaceOnUse" gradientTransform="translate(11.8204 17.9885) rotate(-177.23) scale(0.0659272)">
<stop stop-color="#FFA754"/>
<stop offset="1" stop-color="#FFA754" stop-opacity="0"/>
</radialGradient>
<radialGradient id="paint10_radial_293_146" cx="0" cy="0" r="1" gradientUnits="userSpaceOnUse" gradientTransform="translate(8.21388 18.5941) scale(0.0961571)">
<stop stop-color="#FFA754"/>
<stop offset="1" stop-color="#FFA754" stop-opacity="0"/>
</radialGradient>
<radialGradient id="paint11_radial_293_146" cx="0" cy="0" r="1" gradientUnits="userSpaceOnUse" gradientTransform="translate(11.019 17.1432) scale(0.0653783)">
<stop stop-color="#FFA754"/>
<stop offset="1" stop-color="#FFA754" stop-opacity="0"/>
</radialGradient>
<radialGradient id="paint12_radial_293_146" cx="0" cy="0" r="1" gradientUnits="userSpaceOnUse" gradientTransform="translate(12.2259 16.8655) scale(0.114249)">
<stop stop-color="#FFA754"/>
<stop offset="1" stop-color="#FFA754" stop-opacity="0"/>
</radialGradient>
<radialGradient id="paint13_radial_293_146" cx="0" cy="0" r="1" gradientUnits="userSpaceOnUse" gradientTransform="translate(9.60757 17.4993) rotate(-177.23) scale(0.114251)">
<stop stop-color="#FFA754"/>
<stop offset="1" stop-color="#FFA754" stop-opacity="0"/>
</radialGradient>
<radialGradient id="paint14_radial_293_146" cx="0" cy="0" r="1" gradientUnits="userSpaceOnUse" gradientTransform="translate(13.0543 17.7774) scale(0.174351)">
<stop stop-color="#FFA754"/>
<stop offset="1" stop-color="#FFA754" stop-opacity="0"/>
</radialGradient>
<radialGradient id="paint15_radial_293_146" cx="0" cy="0" r="1" gradientUnits="userSpaceOnUse" gradientTransform="translate(14.55 15.8014) scale(0.0653782)">
<stop stop-color="#FFA754"/>
<stop offset="1" stop-color="#FFA754" stop-opacity="0"/>
</radialGradient>
<radialGradient id="paint16_radial_293_146" cx="0" cy="0" r="1" gradientUnits="userSpaceOnUse" gradientTransform="translate(14.5899 16.9153) scale(0.0774759)">
<stop stop-color="#FFA754"/>
<stop offset="1" stop-color="#FFA754" stop-opacity="0"/>
</radialGradient>
<radialGradient id="paint17_radial_293_146" cx="0" cy="0" r="1" gradientUnits="userSpaceOnUse" gradientTransform="translate(14.4071 18.2351) scale(0.0490444)">
<stop stop-color="#FFA754"/>
<stop offset="1" stop-color="#FFA754" stop-opacity="0"/>
</radialGradient>
<radialGradient id="paint18_radial_293_146" cx="0" cy="0" r="1" gradientUnits="userSpaceOnUse" gradientTransform="translate(15.7831 18.2179) scale(0.0985394)">
<stop stop-color="#FFA754"/>
<stop offset="1" stop-color="#FFA754" stop-opacity="0"/>
</radialGradient>
<radialGradient id="paint19_radial_293_146" cx="0" cy="0" r="1" gradientUnits="userSpaceOnUse" gradientTransform="translate(15.6961 15.3585) scale(0.114248)">
<stop stop-color="#FFA754"/>
<stop offset="1" stop-color="#FFA754" stop-opacity="0"/>
</radialGradient>
<radialGradient id="paint20_radial_293_146" cx="0" cy="0" r="1" gradientUnits="userSpaceOnUse" gradientTransform="translate(18.5397 15.8372) scale(0.0795169)">
<stop stop-color="#FFA754"/>
<stop offset="1" stop-color="#FFA754" stop-opacity="0"/>
</radialGradient>
<radialGradient id="paint21_radial_293_146" cx="0" cy="0" r="1" gradientUnits="userSpaceOnUse" gradientTransform="translate(16.8004 17.1414) scale(0.0459967)">
<stop stop-color="#FFA754"/>
<stop offset="1" stop-color="#FFA754" stop-opacity="0"/>
</radialGradient>
<radialGradient id="paint22_radial_293_146" cx="0" cy="0" r="1" gradientUnits="userSpaceOnUse" gradientTransform="translate(17.0837 16.0558) scale(0.115099)">
<stop stop-color="#FFA754"/>
<stop offset="1" stop-color="#FFA754" stop-opacity="0"/>
</radialGradient>
<linearGradient id="paint23_linear_293_146" x1="9.80627" y1="4.33865" x2="8.72238" y2="6.75366" gradientUnits="userSpaceOnUse">
<stop stop-color="#3C2200"/>
<stop offset="1" stop-color="#643800"/>
</linearGradient>
<linearGradient id="paint24_linear_293_146" x1="12.4146" y1="2.08763" x2="12.0914" y2="0.338087" gradientUnits="userSpaceOnUse">
<stop stop-color="#4B8C1C"/>
<stop offset="1" stop-color="#76AB50"/>
</linearGradient>
<linearGradient id="paint25_linear_293_146" x1="13.1841" y1="2.12496" x2="11.4728" y2="-0.0283903" gradientUnits="userSpaceOnUse">
<stop stop-color="#4B8C1C"/>
<stop offset="1" stop-color="#4B8C1C" stop-opacity="0"/>
</linearGradient>
<linearGradient id="paint26_linear_293_146" x1="9.77204" y1="1.84558" x2="9.25866" y2="0.5906" gradientUnits="userSpaceOnUse">
<stop stop-color="#4B8C1C"/>
<stop offset="1" stop-color="#76AB50"/>
</linearGradient>
<linearGradient id="paint27_linear_293_146" x1="9.35331" y1="1.47139" x2="9.5316" y2="0.458707" gradientUnits="userSpaceOnUse">
<stop stop-color="#4B8C1C"/>
<stop offset="1" stop-color="#4B8C1C" stop-opacity="0"/>
</linearGradient>
<linearGradient id="paint28_linear_293_146" x1="12.7049" y1="2.80647" x2="15.4618" y2="2.46424" gradientUnits="userSpaceOnUse">
<stop stop-color="#4B8C1C"/>
<stop offset="1" stop-color="#76AB50"/>
</linearGradient>
<linearGradient id="paint29_linear_293_146" x1="13.6488" y1="2.27768" x2="15.0387" y2="1.195" gradientUnits="userSpaceOnUse">
<stop stop-color="#76AB50" stop-opacity="0"/>
<stop offset="1" stop-color="#76AB50"/>
</linearGradient>
<linearGradient id="paint30_linear_293_146" x1="15.653" y1="3.83307" x2="15.5578" y2="1.10422" gradientUnits="userSpaceOnUse">
<stop stop-color="#4B8C1C"/>
<stop offset="1" stop-color="#4B8C1C" stop-opacity="0"/>
</linearGradient>
<linearGradient id="paint31_linear_293_146" x1="8.1326" y1="5.431" x2="7.41948" y2="1.49462" gradientUnits="userSpaceOnUse">
<stop stop-color="#4B8C1C"/>
<stop offset="1" stop-color="#76AB50"/>
</linearGradient>
<linearGradient id="paint32_linear_293_146" x1="10.5717" y1="12.0913" x2="6.66184" y2="-0.300775" gradientUnits="userSpaceOnUse">
<stop stop-color="#4B8C1C"/>
<stop offset="1" stop-color="#4B8C1C" stop-opacity="0"/>
</linearGradient>
<linearGradient id="paint33_linear_293_146" x1="10.7495" y1="4.75384" x2="15.4458" y2="5.8186" gradientUnits="userSpaceOnUse">
<stop stop-color="#4B8C1C"/>
<stop offset="1" stop-color="#76AB50"/>
</linearGradient>
<linearGradient id="paint34_linear_293_146" x1="12.0094" y1="8.42198" x2="15.5468" y2="1.72769" gradientUnits="userSpaceOnUse">
<stop stop-color="#4B8C1C"/>
<stop offset="1" stop-color="#4B8C1C" stop-opacity="0"/>
</linearGradient>
<linearGradient id="paint35_linear_293_146" x1="13.5719" y1="6.64917" x2="14.3421" y2="5.18005" gradientUnits="userSpaceOnUse">
<stop stop-color="#4B8C1C"/>
<stop offset="1" stop-color="#4B8C1C" stop-opacity="0"/>
</linearGradient>
<linearGradient id="paint36_linear_293_146" x1="11.305" y1="10.4438" x2="13.9668" y2="10.3677" gradientUnits="userSpaceOnUse">
<stop stop-color="#A3541E"/>
<stop offset="1" stop-color="#512D00"/>
</linearGradient>
<linearGradient id="paint37_linear_293_146" x1="9.39547" y1="11.6706" x2="12.7893" y2="11.6421" gradientUnits="userSpaceOnUse">
<stop stop-color="#C86F34"/>
<stop offset="1" stop-color="#A3541E"/>
</linearGradient>
<linearGradient id="paint38_linear_293_146" x1="7.43294" y1="12.0148" x2="14.6497" y2="9.6472" gradientUnits="userSpaceOnUse">
<stop stop-color="#A3541E"/>
<stop offset="1" stop-color="#512D00"/>
</linearGradient>
<linearGradient id="paint39_linear_293_146" x1="13.0304" y1="9.64227" x2="11.8895" y2="10.3268" gradientUnits="userSpaceOnUse">
<stop stop-color="#3C2200"/>
<stop offset="1" stop-color="#643800"/>
</linearGradient>
<linearGradient id="paint40_linear_293_146" x1="12.7641" y1="7.96069" x2="11.6803" y2="8.81633" gradientUnits="userSpaceOnUse">
<stop stop-color="#3C2200"/>
<stop offset="1" stop-color="#643800"/>
</linearGradient>
<linearGradient id="paint41_linear_293_146" x1="12.9985" y1="11.473" x2="11.3728" y2="11.9292" gradientUnits="userSpaceOnUse">
<stop stop-color="#3C2200"/>
<stop offset="1" stop-color="#643800"/>
</linearGradient>
<linearGradient id="paint42_linear_293_146" x1="12.9709" y1="15.1722" x2="11.6019" y2="15.3148" gradientUnits="userSpaceOnUse">
<stop stop-color="#3C2200"/>
<stop offset="1" stop-color="#643800"/>
</linearGradient>
<linearGradient id="paint43_linear_293_146" x1="12.8401" y1="13.2997" x2="11.4717" y2="13.6231" gradientUnits="userSpaceOnUse">
<stop stop-color="#3C2200"/>
<stop offset="1" stop-color="#643800"/>
</linearGradient>
<linearGradient id="paint44_linear_293_146" x1="12.0919" y1="7.05082" x2="11.0937" y2="7.70682" gradientUnits="userSpaceOnUse">
<stop stop-color="#3C2200"/>
<stop offset="1" stop-color="#643800"/>
</linearGradient>
<linearGradient id="paint45_linear_293_146" x1="9.59763" y1="3.20518" x2="7.05905" y2="6.42829" gradientUnits="userSpaceOnUse">
<stop stop-color="#4B8C1C"/>
<stop offset="1" stop-color="#76AB50"/>
</linearGradient>
<linearGradient id="paint46_linear_293_146" x1="10.2456" y1="12.4552" x2="6.56572" y2="3.3841" gradientUnits="userSpaceOnUse">
<stop stop-color="#4B8C1C"/>
<stop offset="1" stop-color="#4B8C1C" stop-opacity="0"/>
</linearGradient>
<linearGradient id="paint47_linear_293_146" x1="8.30591" y1="7.13894" x2="6.82451" y2="6.02789" gradientUnits="userSpaceOnUse">
<stop stop-color="#4B8C1C"/>
<stop offset="1" stop-color="#4B8C1C" stop-opacity="0"/>
</linearGradient>
<linearGradient id="paint48_linear_293_146" x1="9.17545" y1="8.72461" x2="11.0672" y2="4.03293" gradientUnits="userSpaceOnUse">
<stop stop-color="#4B8C1C"/>
<stop offset="1" stop-color="#76AB50"/>
</linearGradient>
<linearGradient id="paint49_linear_293_146" x1="10.9972" y1="17.7736" x2="10.9972" y2="0.116996" gradientUnits="userSpaceOnUse">
<stop stop-color="#4B8C1C"/>
<stop offset="1" stop-color="#4B8C1C" stop-opacity="0"/>
</linearGradient>
<linearGradient id="paint50_linear_293_146" x1="7.83341" y1="1.918" x2="7.5862" y2="3.28714" gradientUnits="userSpaceOnUse">
<stop stop-color="#4B8C1C"/>
<stop offset="0.9987" stop-color="#407817"/>
</linearGradient>
<linearGradient id="paint51_linear_293_146" x1="6.91567" y1="5.76628" x2="7.67629" y2="6.88821" gradientUnits="userSpaceOnUse">
<stop stop-color="#4B8C1C"/>
<stop offset="0.9987" stop-color="#407817"/>
</linearGradient>
<linearGradient id="paint52_linear_293_146" x1="7.5969" y1="4.7176" x2="8.31949" y2="5.47821" gradientUnits="userSpaceOnUse">
<stop stop-color="#4B8C1C"/>
<stop offset="0.9987" stop-color="#407817"/>
</linearGradient>
<linearGradient id="paint53_linear_293_146" x1="6.51888" y1="7.23615" x2="6.80413" y2="8.4532" gradientUnits="userSpaceOnUse">
<stop stop-color="#4B8C1C"/>
<stop offset="0.9987" stop-color="#407817"/>
</linearGradient>
<linearGradient id="paint54_linear_293_146" x1="6.85224" y1="4.96686" x2="6.94732" y2="8.8367" gradientUnits="userSpaceOnUse">
<stop stop-color="#4B8C1C"/>
<stop offset="0.9987" stop-color="#407817"/>
</linearGradient>
<linearGradient id="paint55_linear_293_146" x1="9.49892" y1="1.59931" x2="11.5176" y2="4.06274" gradientUnits="userSpaceOnUse">
<stop stop-color="#4B8C1C"/>
<stop offset="1" stop-color="#76AB50"/>
</linearGradient>
<linearGradient id="paint56_linear_293_146" x1="11.3481" y1="3.86507" x2="9.60819" y2="0.941375" gradientUnits="userSpaceOnUse">
<stop stop-color="#4B8C1C"/>
<stop offset="0.9987" stop-color="#407817"/>
</linearGradient>
<linearGradient id="paint57_linear_293_146" x1="6.63286" y1="3.47164" x2="6.68991" y2="2.37346" gradientUnits="userSpaceOnUse">
<stop stop-color="#4B8C1C"/>
<stop offset="1" stop-color="#4B8C1C" stop-opacity="0"/>
</linearGradient>
<linearGradient id="paint58_linear_293_146" x1="8.81212" y1="3.62341" x2="8.90232" y2="1.88697" gradientUnits="userSpaceOnUse">
<stop stop-color="#4B8C1C"/>
<stop offset="1" stop-color="#4B8C1C" stop-opacity="0"/>
</linearGradient>
<linearGradient id="paint59_linear_293_146" x1="5.49116" y1="3.77595" x2="5.41985" y2="2.62069" gradientUnits="userSpaceOnUse">
<stop stop-color="#4B8C1C"/>
<stop offset="1" stop-color="#4B8C1C" stop-opacity="0"/>
</linearGradient>
<linearGradient id="paint60_linear_293_146" x1="6.55654" y1="1.68732" x2="6.30934" y2="3.05646" gradientUnits="userSpaceOnUse">
<stop stop-color="#4B8C1C"/>
<stop offset="0.9987" stop-color="#407817"/>
</linearGradient>
<linearGradient id="paint61_linear_293_146" x1="9.48426" y1="2.30335" x2="11.2854" y2="7.52367" gradientUnits="userSpaceOnUse">
<stop stop-color="#4B8C1C"/>
<stop offset="1" stop-color="#4B8C1C" stop-opacity="0"/>
</linearGradient>
<linearGradient id="paint62_linear_293_146" x1="9.62554" y1="5.5882" x2="10.3813" y2="3.71397" gradientUnits="userSpaceOnUse">
<stop stop-color="#4B8C1C"/>
<stop offset="1" stop-color="#4B8C1C" stop-opacity="0"/>
</linearGradient>
<linearGradient id="paint63_linear_293_146" x1="10.3739" y1="4.18901" x2="9.43261" y2="4.77373" gradientUnits="userSpaceOnUse">
<stop stop-color="#4B8C1C"/>
<stop offset="0.9987" stop-color="#407817"/>
</linearGradient>
<linearGradient id="paint64_linear_293_146" x1="10.138" y1="6.7288" x2="10.6229" y2="5.13146" gradientUnits="userSpaceOnUse">
<stop stop-color="#4B8C1C"/>
<stop offset="1" stop-color="#4B8C1C" stop-opacity="0"/>
</linearGradient>
<linearGradient id="paint65_linear_293_146" x1="11.068" y1="5.3062" x2="10.1267" y2="5.89091" gradientUnits="userSpaceOnUse">
<stop stop-color="#4B8C1C"/>
<stop offset="0.9987" stop-color="#407817"/>
</linearGradient>
<linearGradient id="paint66_linear_293_146" x1="14.3699" y1="3.25616" x2="11.956" y2="0.67119" gradientUnits="userSpaceOnUse">
<stop stop-color="#4B8C1C"/>
<stop offset="1" stop-color="#76AB50"/>
</linearGradient>
<clipPath id="clip0_293_146">
<rect width="23" height="23" fill="white"/>
</clipPath>
</defs>
</svg>
