<svg width="22" height="22" viewBox="0 0 22 22" fill="none" xmlns="http://www.w3.org/2000/svg">
<g clip-path="url(#clip0_914_611)">
<path d="M2.20001 4.40002C1.47298 4.40002 0.880014 4.99299 0.880014 5.72002V11.7975C1.45064 11.3025 2.17251 10.9021 3.08001 10.5875V8.80002C3.08001 7.62956 5.07892 7.48002 6.82001 7.48002C8.56111 7.48002 10.56 7.62956 10.56 8.80002V9.68002C10.7078 9.67831 10.8488 9.68002 11 9.68002C11.1513 9.68002 11.2922 9.67831 11.44 9.68002V8.80002C11.44 7.62956 13.4389 7.48002 15.18 7.48002C16.9211 7.48002 18.92 7.62956 18.92 8.80002V10.5738C19.8258 10.8866 20.5442 11.2956 21.12 11.7975V5.72002C21.12 4.99299 20.527 4.40002 19.8 4.40002H2.20001ZM11 10.56C2.59876 10.56 -0.00686144 12.1138 1.35618e-05 16.28H22C22.0069 12.0863 19.4013 10.56 11 10.56ZM1.35618e-05 17.16V22H3.08001V20.24C3.08001 19.6075 3.32751 19.36 3.96001 19.36H18.04C18.6725 19.36 18.92 19.6075 18.92 20.24V22H22V17.16H1.35618e-05Z" fill="#FF9F1C"/>
</g>
<defs>
<clipPath id="clip0_914_611">
<rect width="22" height="22" fill="white"/>
</clipPath>
</defs>
</svg>
