<svg width="116" height="116" viewBox="0 0 116 116" fill="none" xmlns="http://www.w3.org/2000/svg">
<path d="M49.1207 77.2383C47.9783 77.1513 46.9163 76.6197 46.1609 75.7584L28.4024 58C28.0068 57.1719 27.8777 56.2413 28.0329 55.3363C28.1882 54.4312 28.6202 53.5971 29.2693 52.9478C29.9185 52.2984 30.753 51.8663 31.6579 51.7112C32.5627 51.5561 33.4935 51.6851 34.3219 52.0805L48.9431 66.7017L99.4363 16.5639C100.264 16.1683 101.196 16.0392 102.1 16.1944C103.005 16.3497 103.84 16.7817 104.489 17.4308C105.138 18.08 105.57 18.9145 105.725 19.8194C105.88 20.7243 105.751 21.655 105.356 22.4834L52.0805 75.7584C51.3251 76.6197 50.2626 77.1513 49.1207 77.2383Z" fill="#34C677"/>
<path d="M58.0001 111.275C48.4786 111.26 39.1347 108.693 30.9416 103.842C22.7485 98.9905 16.0053 92.0322 11.4137 83.6905C7.9235 77.475 5.76638 70.6007 5.0799 63.5051C3.99652 53.0992 6.00103 42.6046 10.8433 33.3305C15.6857 24.0564 23.1515 16.4133 32.3095 11.3547C38.5251 7.86441 45.3995 5.7073 52.495 5.02082C59.5634 4.2604 66.7129 4.94517 73.5091 7.03344C74.1152 7.15461 74.69 7.40116 75.1955 7.75733C75.7011 8.11345 76.1267 8.57132 76.4452 9.10158C76.7636 9.63179 76.9678 10.2227 77.0448 10.8365C77.1212 11.4501 77.0691 12.0731 76.8909 12.6654C76.7127 13.2577 76.4126 13.8063 76.0101 14.2759C75.6075 14.7455 75.1115 15.1259 74.5539 15.3926C73.9957 15.6593 73.3877 15.8065 72.7698 15.8246C72.1518 15.8429 71.5361 15.7317 70.9637 15.4983C65.2135 13.7693 59.1763 13.2058 53.2053 13.8408C47.3036 14.4452 41.585 16.2372 36.3939 19.1092C31.3927 21.8682 26.9709 25.5664 23.3711 30.001C19.6647 34.5185 16.8969 39.7301 15.2299 45.3307C13.563 50.9315 13.0303 56.8083 13.6631 62.6171C14.2675 68.5188 16.0595 74.2377 18.9315 79.4284C21.6905 84.4298 25.3887 88.8517 29.8233 92.4513C34.3408 96.1581 39.5524 98.9254 45.153 100.592C50.7535 102.259 56.6303 102.792 62.4397 102.159C68.3414 101.555 74.0596 99.763 79.251 96.8909C84.2523 94.1318 88.6736 90.4339 92.2738 85.9991C95.98 81.4819 98.748 76.2698 100.415 70.6694C102.082 65.069 102.615 59.1921 101.982 53.3828C101.923 52.7725 101.986 52.1568 102.165 51.5708C102.345 50.9848 102.638 50.4396 103.029 49.9672C103.419 49.4942 103.898 49.103 104.44 48.8159C104.982 48.5282 105.574 48.3506 106.185 48.292C106.795 48.234 107.411 48.2961 107.997 48.4761C108.583 48.6555 109.128 48.9491 109.6 49.3392C110.073 49.7292 110.464 50.2093 110.751 50.7504C111.039 51.292 111.217 51.8845 111.275 52.4948C112.353 62.9072 110.34 73.406 105.487 82.6812C100.633 91.9558 93.1552 99.5955 83.9866 104.645C77.7048 108.279 70.724 110.538 63.5052 111.275C61.6701 111.275 59.7759 111.275 58.0001 111.275Z" fill="#34C677"/>
</svg>
