<svg width="23" height="23" viewBox="0 0 23 23" fill="none" xmlns="http://www.w3.org/2000/svg">
<path fill-rule="evenodd" clip-rule="evenodd" d="M5.87512 9.15625C7.08325 9.15625 8.06262 8.17687 8.06262 6.96875C8.06262 5.76063 7.08325 4.78125 5.87512 4.78125C4.667 4.78125 3.68762 5.76063 3.68762 6.96875C3.68762 8.17687 4.667 9.15625 5.87512 9.15625ZM4.31262 10.0938C3.99912 10.0938 3.70644 10.2504 3.53256 10.5112L1.03255 14.2612C0.745349 14.692 0.861761 15.2741 1.29257 15.5613C1.72337 15.8485 2.30544 15.7321 2.59264 15.3013L3.37512 14.1276V19.7812C3.37512 20.299 3.79481 20.7188 4.31262 20.7188C4.83037 20.7188 5.25012 20.299 5.25012 19.7812V16.6562H6.50012V19.7812C6.50012 20.299 6.91981 20.7188 7.43762 20.7188C7.95537 20.7188 8.37512 20.299 8.37512 19.7812V14.1276L9.15756 15.3013C9.44475 15.7321 10.0268 15.8485 10.4576 15.5613C10.8884 15.2741 11.0049 14.692 10.7176 14.2612L8.21762 10.5112C8.04375 10.2504 7.75106 10.0938 7.43762 10.0938H4.31262Z" fill="#FF9F1C"/>
<path fill-rule="evenodd" clip-rule="evenodd" d="M19.6251 3.00344C19.6251 2.81737 19.4122 2.69487 19.2279 2.77494L17.1251 3.6875L15.0223 2.77494C14.838 2.69487 14.6251 2.81737 14.6251 3.00344V4.37156C14.6251 4.55769 14.838 4.68006 15.0223 4.60012L17.1251 3.6875L19.2279 4.60012C19.4122 4.68006 19.6251 4.55769 19.6251 4.37156V3.00344ZM17.1251 9.15625C18.3332 9.15625 19.3126 8.17687 19.3126 6.96875C19.3126 5.76062 18.3332 4.78125 17.1251 4.78125C15.917 4.78125 14.9376 5.76062 14.9376 6.96875C14.9376 8.17687 15.917 9.15625 17.1251 9.15625ZM15.5626 10.0937C15.2491 10.0937 14.9564 10.2504 14.7826 10.5112L12.2826 14.2612C11.9954 14.692 12.1117 15.2741 12.5426 15.5613C12.9734 15.8485 13.5554 15.7321 13.8426 15.3013L14.6251 14.1276V15.25L13.3751 17.75H14.6251V19.7812C14.6251 20.299 15.0448 20.7187 15.5626 20.7187C16.0804 20.7187 16.5001 20.299 16.5001 19.7812V17.75H17.7501V19.7812C17.7501 20.299 18.1698 20.7187 18.6876 20.7187C19.2054 20.7187 19.6251 20.299 19.6251 19.7812V17.75H20.8751L19.6251 15.25V14.1276L20.4076 15.3013C20.6947 15.7321 21.2768 15.8485 21.7076 15.5613C22.1384 15.2741 22.2549 14.692 21.9676 14.2612L19.4676 10.5112C19.2937 10.2504 19.001 10.0937 18.6876 10.0937H15.5626Z" fill="#FF9F1C"/>
</svg>
