<svg width="16" height="15" viewBox="0 0 16 15" fill="none" xmlns="http://www.w3.org/2000/svg">
<path d="M1.3976 1L14.6021 14.2045M6.41845 6.07174C6.03505 6.46785 5.7991 7.00747 5.7991 7.60226C5.7991 8.81774 6.78444 9.80301 7.99984 9.80301C8.60321 9.80301 9.14988 9.5602 9.54741 9.167M3.96514 3.67549C2.57184 4.59481 1.51059 5.97659 1 7.60226C1.93477 10.5785 4.71528 12.7374 7.99999 12.7374C9.45901 12.7374 10.8186 12.3114 11.9611 11.5771M7.26626 2.5034C7.50761 2.47944 7.7524 2.46717 7.99999 2.46717C11.2848 2.46717 14.0653 4.62604 15 7.60226C14.7941 8.25809 14.4984 8.87415 14.1276 9.43622" stroke="#FB2742" stroke-width="1.5" stroke-linecap="round" stroke-linejoin="round"/>
</svg>
