<svg width="16" height="16" viewBox="0 0 16 16" fill="none" xmlns="http://www.w3.org/2000/svg">
<path d="M14 6.5V4.25C14 3.42157 13.3284 2.75 12.5 2.75H3.5C2.67157 2.75 2 3.42157 2 4.25V6.5M14 6.5V13.25C14 14.0784 13.3284 14.75 12.5 14.75H3.5C2.67157 14.75 2 14.0784 2 13.25V6.5M14 6.5H2M5 1.25V4.25M11 1.25V4.25" stroke="black" stroke-linecap="round"/>
<path d="M5.375 8H3.875C3.66789 8 3.5 8.16789 3.5 8.375V9.875C3.5 10.0821 3.66789 10.25 3.875 10.25H5.375C5.58211 10.25 5.75 10.0821 5.75 9.875V8.375C5.75 8.16789 5.58211 8 5.375 8Z" fill="black"/>
<path d="M8.75 8H7.25C7.04289 8 6.875 8.16789 6.875 8.375V9.875C6.875 10.0821 7.04289 10.25 7.25 10.25H8.75C8.95711 10.25 9.125 10.0821 9.125 9.875V8.375C9.125 8.16789 8.95711 8 8.75 8Z" fill="black"/>
<path d="M12.125 8H10.625C10.4179 8 10.25 8.16789 10.25 8.375V9.875C10.25 10.0821 10.4179 10.25 10.625 10.25H12.125C12.3321 10.25 12.5 10.0821 12.5 9.875V8.375C12.5 8.16789 12.3321 8 12.125 8Z" fill="black"/>
</svg>
