<svg width="27" height="26" viewBox="0 0 27 26" fill="none" xmlns="http://www.w3.org/2000/svg">
<path d="M10.442 19.8839C15.6566 19.8839 19.8839 15.6566 19.8839 10.442C19.8839 5.22731 15.6566 1 10.442 1C5.22731 1 1 5.22731 1 10.442C1 15.6566 5.22731 19.8839 10.442 19.8839Z" fill="#FFDED5"/>
<path d="M22.8214 1.41956V2.25884" stroke="#4C241D" stroke-width="1.5" stroke-linecap="round" stroke-linejoin="round"/>
<path d="M22.8214 3.9375V4.77679" stroke="#4C241D" stroke-width="1.5" stroke-linecap="round" stroke-linejoin="round"/>
<path d="M21.1429 3.09827H21.9822" stroke="#4C241D" stroke-width="1.5" stroke-linecap="round" stroke-linejoin="round"/>
<path d="M23.6607 3.09827H24.5" stroke="#4C241D" stroke-width="1.5" stroke-linecap="round" stroke-linejoin="round"/>
<path d="M10.0223 12.3304C12.2241 12.3304 14.0089 10.5455 14.0089 8.34378C14.0089 6.14204 12.2241 4.35718 10.0223 4.35718C7.82057 4.35718 6.03571 6.14204 6.03571 8.34378C6.03571 10.5455 7.82057 12.3304 10.0223 12.3304Z" fill="#FC8C29" stroke="#4C241D" stroke-width="1.5" stroke-linecap="round" stroke-linejoin="round"/>
<path d="M24.0803 18.2054H2.25891L4.35713 12.4034C4.35713 11.9389 4.54167 11.4934 4.87015 11.1649C5.19864 10.8364 5.64416 10.6519 6.10871 10.6519H20.2775C20.7218 10.6518 21.1618 10.7393 21.5723 10.9093C21.9828 11.0793 22.3557 11.3285 22.6699 11.6426C22.9841 11.9568 23.2333 12.3298 23.4033 12.7403C23.5733 13.1508 23.6608 13.5907 23.6607 14.035L24.0803 18.2054Z" fill="#BF7E68" stroke="#4C241D" stroke-width="1.5" stroke-linecap="round" stroke-linejoin="round"/>
<path d="M26.1786 18.2054H1V23.2412H26.1786V18.2054Z" fill="#FFEC95"/>
<path d="M7.29462 14.8482L8.97319 12.3304L10.6518 11.4911L11.0714 9.8125H17.366L19.0446 11.4911V11.9107" fill="#BF7E68"/>
<path d="M7.29462 14.8482L8.97319 12.3304L10.6518 11.4911L11.0714 9.8125H17.366L19.0446 11.4911V11.9107" stroke="#4C241D" stroke-width="1.5" stroke-linecap="round" stroke-linejoin="round"/>
<path d="M12.75 13.5892L11.0715 14.4285L10.6518 15.2678L9.39288 15.6874V18.2053" fill="#BF7E68"/>
<path d="M12.75 13.5892L11.0715 14.4285L10.6518 15.2678L9.39288 15.6874V18.2053" stroke="#4C241D" stroke-width="1.5" stroke-linecap="round" stroke-linejoin="round"/>
<path d="M23.1966 12.3303L21.5625 13.5893V15.2678" fill="#BF7E68"/>
<path d="M23.1966 12.3303L21.5625 13.5893V15.2678" stroke="#4C241D" stroke-width="1.5" stroke-linecap="round" stroke-linejoin="round"/>
<path d="M1 18.2054H26.1786" stroke="#4C241D" stroke-width="1.5" stroke-linecap="round" stroke-linejoin="round"/>
<path d="M19.0446 13.1697V15.2679L20.3035 16.5268" fill="#BF7E68"/>
<path d="M19.0446 13.1697V15.2679L20.3035 16.5268" stroke="#4C241D" stroke-width="1.5" stroke-linecap="round" stroke-linejoin="round"/>
<path d="M5.19644 24.5C5.19644 24.0548 5.01959 23.6278 4.7048 23.3131C4.39 22.9983 3.96305 22.8214 3.51787 22.8214C3.07268 22.8214 2.64573 22.9983 2.33094 23.3131C2.01614 23.6278 1.83929 24.0548 1.83929 24.5" fill="#A9BA5A"/>
<path d="M5.19644 24.5C5.19644 24.0548 5.01959 23.6278 4.7048 23.3131C4.39 22.9983 3.96305 22.8214 3.51787 22.8214C3.07268 22.8214 2.64573 22.9983 2.33094 23.3131C2.01614 23.6278 1.83929 24.0548 1.83929 24.5" stroke="#4C241D" stroke-width="1.5" stroke-linecap="round" stroke-linejoin="round"/>
<path d="M8.55355 24.5C8.55355 24.0548 8.3767 23.6278 8.06191 23.3131C7.74712 22.9983 7.32017 22.8214 6.87498 22.8214C6.4298 22.8214 6.00285 22.9983 5.68805 23.3131C5.37326 23.6278 5.19641 24.0548 5.19641 24.5" fill="#A9BA5A"/>
<path d="M8.55355 24.5C8.55355 24.0548 8.3767 23.6278 8.06191 23.3131C7.74712 22.9983 7.32017 22.8214 6.87498 22.8214C6.4298 22.8214 6.00285 22.9983 5.68805 23.3131C5.37326 23.6278 5.19641 24.0548 5.19641 24.5" stroke="#4C241D" stroke-width="1.5" stroke-linecap="round" stroke-linejoin="round"/>
<path d="M11.9107 24.5C11.9107 24.0548 11.7339 23.6278 11.4191 23.3131C11.1043 22.9983 10.6773 22.8214 10.2322 22.8214C9.78698 22.8214 9.36002 22.9983 9.04523 23.3131C8.73044 23.6278 8.55359 24.0548 8.55359 24.5" fill="#A9BA5A"/>
<path d="M11.9107 24.5C11.9107 24.0548 11.7339 23.6278 11.4191 23.3131C11.1043 22.9983 10.6773 22.8214 10.2322 22.8214C9.78698 22.8214 9.36002 22.9983 9.04523 23.3131C8.73044 23.6278 8.55359 24.0548 8.55359 24.5" stroke="#4C241D" stroke-width="1.5" stroke-linecap="round" stroke-linejoin="round"/>
<path d="M15.2678 24.5C15.2678 24.0548 15.091 23.6278 14.7762 23.3131C14.4614 22.9983 14.0345 22.8214 13.5893 22.8214C13.1441 22.8214 12.7171 22.9983 12.4023 23.3131C12.0876 23.6278 11.9107 24.0548 11.9107 24.5" fill="#A9BA5A"/>
<path d="M15.2678 24.5C15.2678 24.0548 15.091 23.6278 14.7762 23.3131C14.4614 22.9983 14.0345 22.8214 13.5893 22.8214C13.1441 22.8214 12.7171 22.9983 12.4023 23.3131C12.0876 23.6278 11.9107 24.0548 11.9107 24.5" stroke="#4C241D" stroke-width="1.5" stroke-linecap="round" stroke-linejoin="round"/>
<path d="M18.625 24.5C18.625 24.0548 18.4482 23.6278 18.1334 23.3131C17.8186 22.9983 17.3916 22.8214 16.9465 22.8214C16.5013 22.8214 16.0743 22.9983 15.7595 23.3131C15.4447 23.6278 15.2679 24.0548 15.2679 24.5" fill="#A9BA5A"/>
<path d="M18.625 24.5C18.625 24.0548 18.4482 23.6278 18.1334 23.3131C17.8186 22.9983 17.3916 22.8214 16.9465 22.8214C16.5013 22.8214 16.0743 22.9983 15.7595 23.3131C15.4447 23.6278 15.2679 24.0548 15.2679 24.5" stroke="#4C241D" stroke-width="1.5" stroke-linecap="round" stroke-linejoin="round"/>
<path d="M21.9821 24.5C21.9821 24.0548 21.8053 23.6278 21.4905 23.3131C21.1757 22.9983 20.7488 22.8214 20.3036 22.8214C19.8584 22.8214 19.4314 22.9983 19.1166 23.3131C18.8018 23.6278 18.625 24.0548 18.625 24.5" fill="#A9BA5A"/>
<path d="M21.9821 24.5C21.9821 24.0548 21.8053 23.6278 21.4905 23.3131C21.1757 22.9983 20.7488 22.8214 20.3036 22.8214C19.8584 22.8214 19.4314 22.9983 19.1166 23.3131C18.8018 23.6278 18.625 24.0548 18.625 24.5" stroke="#4C241D" stroke-width="1.5" stroke-linecap="round" stroke-linejoin="round"/>
<path d="M25.3393 24.5C25.3393 24.0548 25.1624 23.6278 24.8476 23.3131C24.5328 22.9983 24.1059 22.8214 23.6607 22.8214C23.2155 22.8214 22.7886 22.9983 22.4738 23.3131C22.159 23.6278 21.9821 24.0548 21.9821 24.5" fill="#A9BA5A"/>
<path d="M25.3393 24.5C25.3393 24.0548 25.1624 23.6278 24.8476 23.3131C24.5328 22.9983 24.1059 22.8214 23.6607 22.8214C23.2155 22.8214 22.7886 22.9983 22.4738 23.3131C22.159 23.6278 21.9821 24.0548 21.9821 24.5" stroke="#4C241D" stroke-width="1.5" stroke-linecap="round" stroke-linejoin="round"/>
<path d="M4.46245 21.2691C4.71021 21.2691 4.91105 21.0683 4.91105 20.8205C4.91105 20.5728 4.71021 20.3719 4.46245 20.3719C4.2147 20.3719 4.01385 20.5728 4.01385 20.8205C4.01385 21.0683 4.2147 21.2691 4.46245 21.2691Z" fill="#4C241D"/>
<path d="M8.23925 20.8496C8.487 20.8496 8.68785 20.6487 8.68785 20.401C8.68785 20.1532 8.487 19.9524 8.23925 19.9524C7.99149 19.9524 7.79065 20.1532 7.79065 20.401C7.79065 20.6487 7.99149 20.8496 8.23925 20.8496Z" fill="#4C241D"/>
<path d="M11.5964 21.6888C11.8442 21.6888 12.045 21.488 12.045 21.2402C12.045 20.9925 11.8442 20.7916 11.5964 20.7916C11.3487 20.7916 11.1478 20.9925 11.1478 21.2402C11.1478 21.488 11.3487 21.6888 11.5964 21.6888Z" fill="#4C241D"/>
<path d="M13.275 20.4299C13.5227 20.4299 13.7236 20.2291 13.7236 19.9813C13.7236 19.7336 13.5227 19.5327 13.275 19.5327C13.0272 19.5327 12.8264 19.7336 12.8264 19.9813C12.8264 20.2291 13.0272 20.4299 13.275 20.4299Z" fill="#4C241D"/>
<path d="M17.0517 21.6888C17.2995 21.6888 17.5003 21.488 17.5003 21.2402C17.5003 20.9925 17.2995 20.7916 17.0517 20.7916C16.804 20.7916 16.6031 20.9925 16.6031 21.2402C16.6031 21.488 16.804 21.6888 17.0517 21.6888Z" fill="#4C241D"/>
<path d="M23.3464 20.4299C23.5941 20.4299 23.795 20.2291 23.795 19.9813C23.795 19.7336 23.5941 19.5327 23.3464 19.5327C23.0986 19.5327 22.8978 19.7336 22.8978 19.9813C22.8978 20.2291 23.0986 20.4299 23.3464 20.4299Z" fill="#4C241D"/>
<path d="M19.15 20.4299C19.3977 20.4299 19.5986 20.2291 19.5986 19.9813C19.5986 19.7336 19.3977 19.5327 19.15 19.5327C18.9022 19.5327 18.7014 19.7336 18.7014 19.9813C18.7014 20.2291 18.9022 20.4299 19.15 20.4299Z" fill="#4C241D"/>
</svg>
