<svg width="34" height="34" viewBox="0 0 34 34" fill="none" xmlns="http://www.w3.org/2000/svg">
<g clip-path="url(#clip0_83_137)">
<path d="M0.333374 17.3399C0.333374 13.5259 0.333374 11.6188 1.19871 10.0379C2.06404 8.45706 3.64496 7.47589 6.80676 5.51359L10.1401 3.44482C13.4824 1.37052 15.1535 0.333374 17 0.333374C18.8465 0.333374 20.5177 1.37052 23.86 3.44482L27.1934 5.51357C30.3552 7.47589 31.936 8.45706 32.8014 10.0379C33.6667 11.6188 33.6667 13.5259 33.6667 17.3399V19.875C33.6667 26.3764 33.6667 29.6272 31.714 31.6469C29.7615 33.6667 26.6187 33.6667 20.3334 33.6667H13.6667C7.38131 33.6667 4.23862 33.6667 2.28599 31.6469C0.333374 29.6272 0.333374 26.3764 0.333374 19.875V17.3399Z" fill="#D9D9D9"/>
<path d="M12 25.75C11.3097 25.75 10.75 26.3097 10.75 27C10.75 27.6903 11.3097 28.25 12 28.25H22C22.6903 28.25 23.25 27.6903 23.25 27C23.25 26.3097 22.6903 25.75 22 25.75H12Z" fill="white"/>
</g>
<defs>
<clipPath id="clip0_83_137">
<rect width="34" height="34" fill="white"/>
</clipPath>
</defs>
</svg>
