<svg width="9" height="9" viewBox="0 0 9 9" fill="none" xmlns="http://www.w3.org/2000/svg">
<g clip-path="url(#clip0_739_2036)">
<path d="M6.375 7.125H7.125V4.125H4.875V7.125H5.625V4.875H6.375V7.125ZM1.125 7.125V1.5C1.125 1.40054 1.16451 1.30516 1.23483 1.23483C1.30516 1.16451 1.40054 1.125 1.5 1.125H6.75C6.84946 1.125 6.94484 1.16451 7.01516 1.23483C7.08549 1.30516 7.125 1.40054 7.125 1.5V3.375H7.875V7.125H8.25V7.875H0.75V7.125H1.125ZM2.625 4.125V4.875H3.375V4.125H2.625ZM2.625 5.625V6.375H3.375V5.625H2.625ZM2.625 2.625V3.375H3.375V2.625H2.625Z" fill="#FF9F1C"/>
</g>
<defs>
<clipPath id="clip0_739_2036">
<rect width="9" height="9" fill="white"/>
</clipPath>
</defs>
</svg>
