<svg width="24" height="24" viewBox="0 0 24 24" fill="none" xmlns="http://www.w3.org/2000/svg">
<path d="M20.88 20.5201L15.7601 11.0501C15.5887 10.7326 15.3346 10.4673 15.0248 10.2825C14.7149 10.0976 14.3608 10 14.0001 10C13.6393 10 13.2852 10.0976 12.9753 10.2825C12.6655 10.4673 12.4114 10.7326 12.2401 11.0501L10.6701 14.0001L10.3001 13.2301C10.1363 12.8919 9.88057 12.6067 9.56223 12.4072C9.24388 12.2077 8.87576 12.1018 8.50005 12.1018C8.12434 12.1018 7.75622 12.2077 7.43787 12.4072C7.11952 12.6067 6.86382 12.8919 6.70005 13.2301L3.10005 20.5601C3.02527 20.7127 2.99062 20.8818 2.99937 21.0515C3.00812 21.2213 3.05998 21.3859 3.15005 21.5301C3.24012 21.6742 3.36543 21.7929 3.51415 21.8752C3.66288 21.9574 3.83011 22.0004 4.00005 22.0001H20C20.1736 22 20.3441 21.9548 20.4949 21.8689C20.6457 21.783 20.7715 21.6593 20.8601 21.5101C20.949 21.361 20.9977 21.1913 21.0012 21.0177C21.0047 20.8441 20.9629 20.6726 20.88 20.5201Z" fill="black"/>
<path d="M21 22H3C2.73479 22 2.48043 21.8946 2.29289 21.7071C2.10536 21.5196 2 21.2652 2 21C2 20.7348 2.10536 20.4804 2.29289 20.2929C2.48043 20.1054 2.73479 20 3 20H21C21.2652 20 21.5196 20.1054 21.7071 20.2929C21.8946 20.4804 22 20.7348 22 21C22 21.2652 21.8946 21.5196 21.7071 21.7071C21.5196 21.8946 21.2652 22 21 22ZM6 2C5.20888 2 4.43552 2.2346 3.77772 2.67412C3.11992 3.11365 2.60723 3.73836 2.30448 4.46927C2.00173 5.20017 1.92252 6.00444 2.07686 6.78036C2.2312 7.55629 2.61216 8.26902 3.17157 8.82843C3.73098 9.38784 4.44372 9.7688 5.21964 9.92314C5.99556 10.0775 6.79983 9.99827 7.53074 9.69552C8.26164 9.39277 8.88635 8.88008 9.32588 8.22228C9.76541 7.56448 10 6.79113 10 6C10 4.93913 9.57857 3.92172 8.82843 3.17157C8.07828 2.42143 7.06087 2 6 2Z" fill="#2CA9BC"/>
</svg>
