<svg width="23" height="23" viewBox="0 0 23 23" fill="none" xmlns="http://www.w3.org/2000/svg">
<g clip-path="url(#clip0_293_390)">
<path d="M0.936707 20.3276L11.5591 1.72852L22.1814 20.3276H0.936707Z" fill="#C6C3CB"/>
<path d="M11.4897 5.71354L12.6485 6.73353L13.7745 5.60761L11.5591 1.72852L9.34363 5.60761L10.4696 6.73353L11.4897 5.71354Z" fill="#DFDFE2"/>
<path d="M9.35339 11.2224C9.26229 11.2224 9.17487 11.1863 9.1105 11.1219L8.1772 10.1886C8.04306 10.0543 8.04306 9.83688 8.1772 9.70274C8.31134 9.56865 8.52889 9.56865 8.66299 9.70274L9.35339 10.3931L10.0231 9.72341C10.1572 9.58931 10.3748 9.58931 10.5089 9.72341C10.643 9.85763 10.643 10.0751 10.5089 10.2092L9.59628 11.1219C9.53187 11.1863 9.44449 11.2224 9.35339 11.2224Z" fill="#77757E"/>
<path d="M13.7358 11.2224C13.6447 11.2224 13.5573 11.1863 13.4929 11.1219L12.5596 10.1886C12.4255 10.0543 12.4255 9.83688 12.5596 9.70274C12.6937 9.56865 12.9113 9.56865 13.0454 9.70274L13.7358 10.3931L14.4055 9.72341C14.5396 9.58931 14.7572 9.58931 14.8913 9.72341C15.0254 9.85763 15.0254 10.0751 14.8913 10.2092L13.9787 11.1219C13.9143 11.1863 13.8269 11.2224 13.7358 11.2224Z" fill="#77757E"/>
<path d="M21.7803 4.62676C22.2536 4.62676 22.6374 4.24299 22.6374 3.76961C22.6374 3.29622 22.2536 2.91245 21.7803 2.91245C21.6376 2.91245 21.5031 2.94749 21.3848 3.00917C21.267 2.77589 21.0699 2.58955 20.8287 2.48587C20.8287 2.48372 20.8289 2.48165 20.8289 2.4795C20.8289 1.2936 19.8675 0.332275 18.6816 0.332275C17.6996 0.332275 16.8721 0.991863 16.6164 1.89196C16.051 1.9912 15.6045 2.43484 15.5011 2.99879C15.3877 2.94349 15.2605 2.91241 15.1259 2.91241C14.6525 2.91241 14.2687 3.29618 14.2687 3.76956C14.2687 4.24295 14.6525 4.62672 15.1259 4.62672L21.7803 4.62676Z" fill="#8EC1ED"/>
<g opacity="0.29">
<path d="M22.1813 20.3276L16.3339 10.0892C13.4388 13.8022 7.50981 14.8375 3.91283 15.1167L0.936707 20.3276H22.1813Z" fill="#77757E"/>
</g>
<path d="M5.08872 19.9359H2.96985V22.6677H5.08872V19.9359Z" fill="#836948"/>
<path d="M12.6185 19.9359H10.4996V22.6677H12.6185V19.9359Z" fill="#836948"/>
<path d="M20.3941 19.9359H18.2752V22.6677H20.3941V19.9359Z" fill="#836948"/>
<path d="M5.08872 19.9359H2.96985V21.0856H5.08872V19.9359Z" fill="#564531"/>
<path d="M12.6185 19.9359H10.4996V21.0856H12.6185V19.9359Z" fill="#564531"/>
<path d="M20.3941 19.9359H18.2752V21.0856H20.3941V19.9359Z" fill="#564531"/>
<path d="M7.51157 4.62676C7.98495 4.62676 8.36872 4.24299 8.36872 3.76961C8.36872 3.29622 7.98495 2.91245 7.51157 2.91245C7.36889 2.91245 7.23444 2.94749 7.11612 3.00917C6.99833 2.77589 6.80122 2.58955 6.56003 2.48587C6.56003 2.48372 6.56021 2.48165 6.56021 2.4795C6.56021 1.2936 5.59884 0.332275 4.41299 0.332275C3.43091 0.332275 2.6034 0.991863 2.3478 1.89196C1.78237 1.9912 1.33584 2.43484 1.23248 2.99879C1.11909 2.94349 0.99183 2.91241 0.857244 2.91241C0.383768 2.91245 0 3.29622 0 3.76961C0 4.24299 0.383768 4.62676 0.857154 4.62676H7.51157Z" fill="#8EC1ED"/>
<path d="M7.84988 20.3277L6.40237 17.8313H7.35889L5.84448 15.2197H6.71165L4.06041 10.6477L1.40917 15.2197H2.27638L0.761976 17.8313H1.71845L0.270935 20.3277H7.84988Z" fill="#33A854"/>
<path d="M15.4085 20.3277L13.961 17.8313H14.9175L13.4031 15.2197H14.2703L11.619 10.6477L8.96776 15.2197H9.83498L8.32057 17.8313H9.27709L7.82953 20.3277H15.4085Z" fill="#33A854"/>
<path d="M23 20.3277L21.5525 17.8313H22.5091L20.9946 15.2197H21.8618L19.2106 10.6477L16.5593 15.2197H17.4265L15.9121 17.8313H16.8686L15.4211 20.3277H23Z" fill="#33A854"/>
<path opacity="0.28" d="M21.5525 17.8313H22.509L20.9946 15.2197H21.8618L19.2105 10.6477L18.8146 11.3305L20.4344 14.1238H19.5671L21.0816 16.7355H20.125L21.5725 19.2318H16.0565L15.4211 20.3277H23L21.5525 17.8313Z" fill="#266659"/>
<path opacity="0.28" d="M13.9009 17.8313H14.8575L13.3431 15.2197H14.2103L11.5591 10.6477L11.1631 11.3305L12.7829 14.1238H11.9157L13.4301 16.7355H12.4736L13.9211 19.2318H8.40506L7.76959 20.3277H15.3485L13.9009 17.8313Z" fill="#266659"/>
<path opacity="0.28" d="M6.37119 17.8313H7.32776L5.81331 15.2197H6.68053L4.02928 10.6477L3.6333 11.3305L5.25309 14.1238H4.38592L5.90037 16.7355H4.9438L6.39132 19.2318H0.875317L0.239807 20.3277H7.81876L6.37119 17.8313Z" fill="#266659"/>
</g>
<defs>
<clipPath id="clip0_293_390">
<rect width="23" height="23" fill="white"/>
</clipPath>
</defs>
</svg>
