<svg width="30" height="30" viewBox="0 0 30 30" fill="none" xmlns="http://www.w3.org/2000/svg">
<path fill-rule="evenodd" clip-rule="evenodd" d="M23.75 2.5C25.8211 2.5 27.5 4.17893 27.5 6.25V23.75C27.5 25.8211 25.8211 27.5 23.75 27.5H6.25C4.17893 27.5 2.5 25.8211 2.5 23.75V6.25C2.5 4.17893 4.17893 2.5 6.25 2.5H23.75ZM23.75 5H6.25C5.55964 5 5 5.55964 5 6.25V23.75C5 24.4404 5.55964 25 6.25 25H23.75C24.4404 25 25 24.4404 25 23.75V6.25C25 5.55964 24.4404 5 23.75 5ZM11.25 7.5H15C17.7614 7.5 20 9.73858 20 12.5C20 15.1777 17.895 17.3638 15.2495 17.4939L15 17.5H12.5V21.25C12.5 21.9404 11.9404 22.5 11.25 22.5C10.5596 22.5 10 21.9404 10 21.25V8.75C10 8.05964 10.5596 7.5 11.25 7.5ZM15 10H12.5V15H15L15.1866 14.9931C16.4802 14.8977 17.5 13.818 17.5 12.5C17.5 11.1193 16.3807 10 15 10Z" fill="#FF9F1C"/>
</svg>
