<svg width="24" height="24" viewBox="0 0 24 24" fill="none" xmlns="http://www.w3.org/2000/svg">
<g clip-path="url(#clip0_914_615)">
<path d="M8.6671 10.8889C9.54613 10.8889 10.4054 10.6282 11.1363 10.1399C11.8672 9.6515 12.4368 8.95738 12.7732 8.14526C13.1096 7.33315 13.1976 6.43952 13.0261 5.57738C12.8547 4.71524 12.4314 3.92332 11.8098 3.30175C11.1882 2.68018 10.3963 2.25689 9.53417 2.0854C8.67203 1.91391 7.7784 2.00193 6.96629 2.33832C6.15417 2.6747 5.46004 3.24436 4.97168 3.97525C4.48332 4.70613 4.22266 5.56542 4.22266 6.44445C4.22266 7.62319 4.69091 8.75365 5.5244 9.58714C6.3579 10.4206 7.48836 10.8889 8.6671 10.8889Z" fill="#FF9F1C"/>
<path d="M17.556 13.1111C18.2153 13.1111 18.8597 12.9156 19.4079 12.5494C19.9561 12.1831 20.3833 11.6625 20.6356 11.0534C20.8879 10.4443 20.9539 9.7741 20.8253 9.12749C20.6967 8.48089 20.3792 7.88695 19.913 7.42077C19.4468 6.9546 18.8529 6.63713 18.2063 6.50851C17.5597 6.37989 16.8895 6.4459 16.2804 6.69819C15.6713 6.95049 15.1507 7.37773 14.7844 7.92589C14.4182 8.47406 14.2227 9.11852 14.2227 9.77779C14.2227 10.6618 14.5738 11.5097 15.199 12.1348C15.8241 12.7599 16.6719 13.1111 17.556 13.1111Z" fill="#FF9F1C"/>
<path d="M22.0008 20.8888C22.2954 20.8888 22.5781 20.7718 22.7864 20.5634C22.9948 20.355 23.1119 20.0724 23.1119 19.7777C23.111 18.7393 22.8191 17.7219 22.2692 16.8409C21.7194 15.96 20.9336 15.2508 20.0011 14.7938C19.0687 14.3368 18.0267 14.1503 16.9936 14.2555C15.9605 14.3607 14.9776 14.7533 14.1563 15.3888C13.068 14.3048 11.683 13.5673 10.1761 13.2693C8.66919 12.9713 7.10778 13.1263 5.68879 13.7145C4.2698 14.3028 3.05677 15.2981 2.20269 16.5749C1.34861 17.8517 0.891726 19.3527 0.889648 20.8888C0.889648 21.1835 1.00671 21.4661 1.21509 21.6745C1.42346 21.8829 1.70607 22 2.00076 22H15.3341C15.6288 22 15.9114 21.8829 16.1198 21.6745C16.3281 21.4661 16.4452 21.1835 16.4452 20.8888" fill="#FF9F1C"/>
</g>
<defs>
<clipPath id="clip0_914_615">
<rect width="24" height="24" fill="white"/>
</clipPath>
</defs>
</svg>
