<svg width="34" height="34" viewBox="0 0 34 34" fill="none" xmlns="http://www.w3.org/2000/svg">
<path d="M30.4246 26.8425C29.1675 24.6079 27.1087 22.0769 23.7568 20.6381C21.8398 21.9792 19.5109 22.7688 17.0003 22.7688C14.4883 22.7688 12.1594 21.9793 10.2424 20.6381C6.89056 22.0769 4.83164 24.608 3.5753 26.8425C1.9079 29.8063 3.21517 34 6.09887 34C8.98262 34 17.0004 34 17.0004 34C17.0004 34 25.0173 34 27.9012 34C30.7848 34 32.0921 29.8063 30.4246 26.8425Z" fill="#D9D9D9"/>
<path d="M17.0003 19.9644C21.9239 19.9644 25.9141 15.9729 25.9141 11.0499V8.91444C25.9141 3.99155 21.9239 0 17.0003 0C12.076 0 8.08514 3.99155 8.08514 8.91451V11.05C8.08514 15.9729 12.076 19.9644 17.0003 19.9644Z" fill="#D9D9D9"/>
</svg>
