<svg width="34" height="34" viewBox="0 0 34 34" fill="none" xmlns="http://www.w3.org/2000/svg">
<path d="M30.4247 26.8425C29.1676 24.6079 27.1087 22.0769 23.7569 20.6381C21.8399 21.9792 19.511 22.7688 17.0004 22.7688C14.4884 22.7688 12.1595 21.9793 10.2424 20.6381C6.89062 22.0769 4.8317 24.608 3.57536 26.8425C1.90796 29.8063 3.21524 34 6.09893 34C8.98268 34 17.0004 34 17.0004 34C17.0004 34 25.0174 34 27.9012 34C30.7849 34 32.0921 29.8063 30.4247 26.8425Z" fill="#FF9F1C"/>
<path d="M17.0004 19.9644C21.924 19.9644 25.9142 15.9729 25.9142 11.0499V8.91444C25.9142 3.99155 21.924 0 17.0004 0C12.076 0 8.08521 3.99155 8.08521 8.91451V11.05C8.08521 15.9729 12.0761 19.9644 17.0004 19.9644Z" fill="#FF9F1C"/>
</svg>
