<svg width="15" height="15" viewBox="0 0 15 15" fill="none" xmlns="http://www.w3.org/2000/svg">
<path d="M11.6092 8.17966C10.9236 7.78415 10.9647 6.44089 11.4041 5.67917C11.7982 4.99656 12.6712 4.76218 13.3538 5.15622C14.0364 5.55027 14.2708 6.42331 13.8768 7.10593C13.4358 7.86911 12.2947 8.57663 11.6092 8.17966ZM9.13213 5.71286C8.24297 5.47409 7.8709 3.8906 8.14483 2.87107C8.38653 1.97019 9.31231 1.43406 10.2147 1.67576C11.1155 1.91745 11.6517 2.84324 11.41 3.74558C11.136 4.76511 10.0213 5.95163 9.13213 5.71286ZM3.42071 8.18406C2.7337 8.58103 1.58819 7.87204 1.14727 7.10886C0.751763 6.42478 0.986138 5.55027 1.67169 5.15476C2.35577 4.75925 3.23174 4.99363 3.62579 5.67771C4.06524 6.44236 4.10772 7.78708 3.42071 8.18406ZM5.4876 5.71286C4.59844 5.95163 3.4837 4.76511 3.21124 3.74558C2.96954 2.8447 3.5042 1.91745 4.40655 1.67576C5.30889 1.43406 6.23467 1.96872 6.47637 2.87107C6.74883 3.8906 6.37676 5.47409 5.4876 5.71286ZM7.51495 6.39109C9.15118 6.39109 11.615 8.88279 11.615 10.8969C11.615 12.2343 11.2005 12.9961 10.4564 13.2612C10.2 13.352 9.9876 13.3696 9.66094 13.3593C9.59649 13.3579 9.58477 13.3564 9.56573 13.3564C9.39434 13.3564 9.22295 13.3008 8.98419 13.1924C8.90508 13.1557 8.82159 13.1147 8.70293 13.0547C8.7879 13.0971 8.48028 12.9419 8.4085 12.9067C8.16973 12.7881 7.98663 12.706 7.81524 12.646C7.6834 12.5991 7.56329 12.5683 7.45635 12.5537H7.57354C7.46661 12.5698 7.34795 12.6006 7.21465 12.6474C7.0418 12.709 6.86016 12.7895 6.62139 12.9096C6.54961 12.9448 6.24346 13.1015 6.32696 13.0591C6.20831 13.1191 6.12481 13.1601 6.04571 13.1968C5.8084 13.3066 5.63555 13.3623 5.46417 13.3623C5.44512 13.3623 5.4334 13.3623 5.36895 13.3652C5.04229 13.3755 4.82989 13.3579 4.57354 13.2671C3.8294 13.0019 3.41485 12.2402 3.41485 10.9028C3.41485 8.88865 5.87872 6.39109 7.51495 6.39109Z" fill="#FF0000"/>
<path d="M12.0634 7.46913C12.2377 7.57021 12.9687 7.11757 13.2118 6.6957C13.3803 6.40566 13.2807 6.03359 12.9892 5.86513C12.6991 5.69667 12.3271 5.79628 12.1586 6.08779C11.9154 6.51113 11.8891 7.36952 12.0634 7.46913ZM9.34463 4.92031C9.6625 5.00527 10.4447 4.17324 10.6176 3.5331C10.7421 3.06874 10.4667 2.59267 10.0023 2.46816C9.53799 2.34365 9.06191 2.61904 8.9374 3.08339C8.76455 3.72353 9.02529 4.83534 9.34463 4.92031ZM2.97256 7.47353C3.14834 7.37245 3.12197 6.51113 2.87734 6.08779C2.70889 5.79628 2.33535 5.69667 2.04385 5.86513C1.75234 6.03359 1.65273 6.40712 1.82119 6.69863C2.06435 7.12197 2.79678 7.5746 2.97256 7.47353ZM5.27529 4.92031C5.59316 4.83534 5.85537 3.72206 5.68398 3.08193C5.55947 2.61757 5.0834 2.34218 4.61904 2.46669C4.15469 2.5912 3.8793 3.06728 4.00381 3.53163C4.17519 4.17324 4.95742 5.00527 5.27529 4.92031ZM7.51504 7.21132C6.33437 7.21132 4.23525 9.33827 4.23525 10.9013C4.23525 11.9223 4.47256 12.3588 4.84756 12.4935C4.98232 12.5419 5.11269 12.5521 5.34414 12.5448C5.42031 12.5419 5.4335 12.5419 5.46426 12.5419C5.52139 12.5419 5.51846 12.5434 6.25527 12.1757C6.52187 12.0424 6.73135 11.9486 6.94228 11.8739C7.12246 11.8109 7.29238 11.7655 7.45644 11.7421L7.51504 11.7333L7.57363 11.7421C7.73769 11.7655 7.90615 11.8095 8.08633 11.8725C8.29727 11.9457 8.50674 12.0394 8.77334 12.1727C9.51016 12.539 9.50723 12.5375 9.56436 12.5375C9.59658 12.5375 9.6083 12.5375 9.68447 12.5404C9.91592 12.5477 10.0463 12.5375 10.1811 12.4892C10.5561 12.3559 10.7934 11.9179 10.7934 10.8969C10.7948 9.33388 8.69717 7.21132 7.51504 7.21132Z" fill="white"/>
<path d="M1 13L14 2" stroke="#FF0000" stroke-linecap="round"/>
</svg>
