<svg width="9" height="9" viewBox="0 0 9 9" fill="none" xmlns="http://www.w3.org/2000/svg">
<path d="M4.50023 0C2.72025 0 1.27197 1.44819 1.27197 3.22826C1.27197 4.46296 1.59741 4.89176 4.25623 8.86959C4.31069 8.95108 4.40221 9 4.50023 9C4.59825 9 4.68976 8.95108 4.74423 8.86961C7.40294 4.89315 7.72849 4.45006 7.72849 3.22828C7.72849 1.44819 6.28021 0 4.50023 0ZM4.50023 4.69564C3.69107 4.69564 3.03284 4.03741 3.03284 3.22826C3.03284 2.4191 3.69107 1.76087 4.50023 1.76087C5.30939 1.76087 5.96762 2.4191 5.96762 3.22826C5.96762 4.03741 5.30939 4.69564 4.50023 4.69564Z" fill="#D9D9D9"/>
</svg>
