<svg width="30" height="30" viewBox="0 0 30 30" fill="none" xmlns="http://www.w3.org/2000/svg">
<g clip-path="url(#clip0_914_481)">
<path d="M19.1623 11.7018H11.5361C11.4817 11.7018 11.4375 11.7461 11.4375 11.8004V15.8279C11.4375 15.8823 11.4817 15.9265 11.5361 15.9265H19.1624C19.2168 15.9265 19.261 15.8823 19.261 15.8279V11.8004C19.2609 11.7461 19.2167 11.7018 19.1623 11.7018ZM18.0973 14.7628H12.6011V12.866H18.0973V14.7628Z" fill="#FF9F1C"/>
<path d="M29.9014 13.8055C29.9558 13.8055 30 13.7612 30 13.7069V12.4181C30 12.3637 29.9558 12.3195 29.9014 12.3195H22.1612V6.18742C22.1578 4.88758 21.7243 3.64598 20.9402 2.69061C20.5274 2.19367 20.0358 1.79582 19.4783 1.50859C18.8798 1.20461 18.2135 1.04395 17.5516 1.04395C16.8878 1.04395 16.221 1.20461 15.622 1.50912C14.8018 1.93105 14.1168 2.60453 13.6411 3.45602C13.1841 4.26947 12.9425 5.2143 12.9425 6.18801C12.9425 7.30838 13.8541 8.22004 14.974 8.22004C16.0944 8.22004 17.0061 7.30844 17.0061 6.18707C17.0027 5.83738 17.1096 5.50012 17.2928 5.28414C17.3784 5.18066 17.4506 5.13889 17.4674 5.13021C17.5087 5.11146 17.5295 5.1076 17.5516 5.1076C17.5737 5.1076 17.5949 5.11146 17.6295 5.12687C17.7344 5.18506 17.8349 5.29527 17.9139 5.43719C18.0322 5.64977 18.0976 5.91678 18.0976 6.18812V8.80217H12.6015V6.18812C12.6015 4.89121 12.1675 3.64949 11.3801 2.69078C10.9697 2.19525 10.479 1.79793 9.92203 1.50877C9.32355 1.20479 8.65728 1.04412 7.99535 1.04412C7.32961 1.04412 6.66141 1.20479 6.06246 1.5093C5.24027 1.9341 4.55531 2.60711 4.08193 3.45619C3.6249 4.27545 3.38291 5.22021 3.38291 6.18818C3.38291 7.30855 4.29451 8.22021 5.41494 8.22021C6.5349 8.22021 7.4465 7.30861 7.4465 6.18818C7.4465 5.84277 7.55619 5.49684 7.7332 5.28426C7.79285 5.21207 7.8515 5.16062 7.90734 5.13033C7.94965 5.11105 7.97086 5.10771 7.99535 5.10771C8.01463 5.10771 8.03578 5.11158 8.07041 5.12699C8.17529 5.18518 8.27725 5.2958 8.35764 5.4373C8.474 5.64607 8.53805 5.91309 8.53805 6.18824V12.3198H0.0986133C0.0442969 12.3198 0 12.3641 0 12.4185V13.7072C0 13.7616 0.0442969 13.8058 0.0986133 13.8058H8.53793C8.53793 13.8058 8.53793 20.9178 8.53793 20.9251C8.21707 21.0353 7.95006 21.168 7.74996 21.2734L7.52672 21.3932C7.26457 21.5346 7.03752 21.6573 6.78639 21.7506C6.52752 21.8439 6.14654 21.9512 5.49521 21.9545C5.03098 21.9545 4.66682 21.9036 4.31426 21.7886C4.11703 21.7246 3.92988 21.6423 3.68789 21.5144L3.46371 21.3946C3.2049 21.2537 2.91146 21.0944 2.54637 20.9587C2.01094 20.7616 1.43121 20.6658 0.744316 20.6658C0.743848 20.6658 0.0987305 20.6658 0.0987305 20.6658C0.0444141 20.6658 0.000117188 20.7101 0.000117188 20.7644V28.8578C0.000117188 28.9121 0.0444141 28.9564 0.0987305 28.9564H29.9015C29.9559 28.9564 30.0001 28.9121 30.0001 28.8578V20.7641C30.0001 20.7097 29.9559 20.6655 29.9015 20.6655H29.2569C28.6407 20.6655 28.1038 20.7429 27.6155 20.9022C27.26 21.0186 26.9708 21.1615 26.7587 21.2731L26.5413 21.39C26.2771 21.5329 26.0487 21.6565 25.7961 21.7503C25.5373 21.8436 25.1558 21.9509 24.5016 21.9542C24.0436 21.9542 23.6684 21.9019 23.3205 21.7883C23.1233 21.7243 22.9362 21.6421 22.6947 21.5146L22.5018 21.4107C22.3945 21.3524 22.2815 21.2914 22.1613 21.2308V13.8055H29.9014ZM18.0976 20.9055C17.7637 21.0157 17.4828 21.1527 17.2509 21.273L17.0224 21.3961C16.7636 21.5361 16.5398 21.6573 16.2873 21.7502C16.0314 21.8435 15.6533 21.9508 14.9966 21.9541C14.5386 21.9541 14.1634 21.9017 13.8156 21.7882C13.6198 21.7247 13.4327 21.6424 13.1897 21.5145L12.9911 21.4077C12.8699 21.3422 12.741 21.2724 12.6015 21.2027V18.8263H18.0976V20.9055H18.0976ZM20.9974 20.7934C20.6179 20.7073 20.2219 20.6654 19.7905 20.6654H19.7491C19.5769 20.6654 19.4157 20.6717 19.2613 20.6828V17.7613C19.2613 17.707 19.2171 17.6627 19.1627 17.6627H11.5364C11.482 17.6627 11.4378 17.707 11.4378 17.7613V20.7818C11.0804 20.7044 10.6907 20.6654 10.2472 20.6654C10.2462 20.6654 10.2458 20.6654 10.2448 20.6654C10.0432 20.6654 9.86473 20.6727 9.70219 20.6871V6.18789C9.70219 5.70971 9.58723 5.25414 9.3702 4.8707C9.17637 4.52049 8.90309 4.24439 8.60098 4.0924C8.40322 3.99232 8.20406 3.94322 7.99242 3.94322C7.78078 3.94322 7.58156 3.99232 7.38434 4.0924C7.18805 4.19049 6.99996 4.34541 6.84076 4.53977C6.48615 4.96404 6.28271 5.56486 6.28271 6.18789C6.28271 6.66648 5.89348 7.05572 5.41482 7.05572C4.93623 7.05572 4.54699 6.66654 4.54699 6.18789C4.54699 5.41961 4.73748 4.67061 5.0983 4.02262C5.46293 3.37217 5.98008 2.86088 6.59344 2.54482C7.02545 2.32398 7.50984 2.20756 7.99523 2.20756C8.47629 2.20756 8.95881 2.32393 9.39082 2.54482C9.80408 2.7574 10.1721 3.05611 10.4843 3.43141C11.0991 4.17895 11.4377 5.15746 11.4377 6.18789V9.86752C11.4377 9.92189 11.482 9.96613 11.5363 9.96613H19.1626C19.217 9.96613 19.2612 9.92184 19.2612 9.86752V6.18789C19.2612 5.70924 19.1463 5.25367 18.9298 4.8707C18.7355 4.51955 18.4608 4.2434 18.1577 4.09281C17.9629 3.99227 17.7642 3.94316 17.5516 3.94316C17.3399 3.94316 17.1407 3.99227 16.9436 4.09234C16.7501 4.18949 16.5611 4.34389 16.3966 4.53971C16.041 4.96926 15.8391 5.57014 15.8424 6.18783C15.8424 6.66643 15.4528 7.05566 14.9741 7.05566C14.4954 7.05566 14.1063 6.66648 14.1063 6.18783C14.1063 5.41428 14.2968 4.66568 14.6575 4.02256C15.0222 3.37211 15.5394 2.86123 16.1532 2.54477C16.5851 2.32393 17.0696 2.2075 17.555 2.2075C18.036 2.2075 18.5185 2.32387 18.95 2.54477C19.3666 2.76074 19.7337 3.05945 20.0406 3.43135C20.6545 4.17742 20.9941 5.15641 20.9974 6.18783V20.7934Z" fill="#FF9F1C"/>
</g>
<defs>
<clipPath id="clip0_914_481">
<rect width="30" height="30" fill="white"/>
</clipPath>
</defs>
</svg>
