<svg width="30" height="30" viewBox="0 0 30 30" fill="none" xmlns="http://www.w3.org/2000/svg">
<g clip-path="url(#clip0_914_458)">
<path d="M3.36859 2.79724L24.9563 24.3849C25.3659 24.7946 25.596 25.3502 25.596 25.9295C25.596 26.5088 25.3659 27.0644 24.9563 27.474C24.5466 27.8835 23.991 28.1135 23.4118 28.1135C22.8325 28.1135 22.2769 27.8835 21.8672 27.474L16.5938 22.1097C16.2487 21.7593 16.0551 21.2873 16.0547 20.7955V20.4715C16.0548 20.2231 16.0055 19.9772 15.9097 19.7481C15.814 19.519 15.6737 19.3112 15.4969 19.1367L14.8161 18.508C14.5849 18.2947 14.3039 18.143 13.9987 18.0668C13.6936 17.9906 13.3742 17.9924 13.07 18.072C12.5902 18.1973 12.086 18.1948 11.6074 18.065C11.1289 17.9352 10.6926 17.6825 10.3418 17.332L5.33617 12.3258C2.36664 9.35623 1.27387 4.87205 3.36859 2.79724Z" stroke="#FF9F1C" stroke-width="2" stroke-linejoin="round"/>
<path d="M23.4375 1.875L18.9111 6.40137C18.5628 6.7496 18.2865 7.16304 18.098 7.61806C17.9095 8.07309 17.8125 8.56079 17.8125 9.05332V9.92402C17.8125 10.0472 17.7883 10.1692 17.7411 10.283C17.694 10.3968 17.6248 10.5002 17.5377 10.5873L16.875 11.25" stroke="#FF9F1C" stroke-width="2" stroke-linecap="round" stroke-linejoin="round"/>
<path d="M18.75 13.125L19.4127 12.4623C19.4998 12.3752 19.6032 12.306 19.717 12.2589C19.8308 12.2117 19.9528 12.1875 20.076 12.1875H20.9467C21.4392 12.1875 21.9269 12.0905 22.3819 11.902C22.837 11.7135 23.2504 11.4372 23.5986 11.0889L28.125 6.5625" stroke="#FF9F1C" stroke-width="2" stroke-linecap="round" stroke-linejoin="round"/>
<path d="M25.7812 4.21875L21.0938 8.90625" stroke="#FF9F1C" stroke-width="2" stroke-linecap="round" stroke-linejoin="round"/>
<path d="M11.7192 21.5625L5.87626 27.4383C5.43674 27.8777 4.8407 28.1245 4.21923 28.1245C3.59775 28.1245 3.00171 27.8777 2.56219 27.4383C2.12281 26.9988 1.87598 26.4027 1.87598 25.7812C1.87598 25.1598 2.12281 24.5637 2.56219 24.1242L7.50048 19.2188" stroke="#FF9F1C" stroke-width="2" stroke-linecap="round" stroke-linejoin="round"/>
</g>
<defs>
<clipPath id="clip0_914_458">
<rect width="30" height="30" fill="white"/>
</clipPath>
</defs>
</svg>
