<svg width="16" height="16" viewBox="0 0 16 16" fill="none" xmlns="http://www.w3.org/2000/svg">
<g clip-path="url(#clip0_914_664)">
<path d="M14.7637 0.803681V2.99859C15.0667 3.33993 15.5084 3.5549 16.0004 3.5549V0.247681C15.5084 0.247681 15.0667 0.462649 14.7637 0.803681Z" fill="#FF9F1C"/>
<path d="M4.35999 5.93554C4.23537 6.16163 4.31727 6.44563 4.54365 6.57054L9.96596 9.56072C10.1921 9.68504 10.4764 9.60285 10.6013 9.37676L10.8177 8.98391L4.57643 5.54272L4.35999 5.93554Z" fill="#FF9F1C"/>
<path d="M9.86784 5.12769L10.048 4.80129C10.1404 4.63398 10.0796 4.42338 9.91199 4.33094L8.99446 3.82491C8.82684 3.73248 8.61627 3.79335 8.52415 3.96091L8.34396 4.28766C7.04324 3.9346 5.64421 4.33007 4.72168 5.30904L10.9372 8.73623C11.2724 7.43344 10.8606 6.03941 9.86784 5.12769Z" fill="#FF9F1C"/>
<path d="M0.0493047 10.6666C-0.0563203 10.8588 0.0133047 11.1001 0.205211 11.206C0.397367 11.3119 0.63868 11.242 0.744586 11.0501C0.850461 10.8582 0.73843 10.239 0.73843 10.239C0.73843 10.239 0.15518 10.4748 0.0493047 10.6666Z" fill="#FF9F1C"/>
<path d="M2.08847 11.791C1.9826 11.9829 2.0525 12.2245 2.24438 12.3301C2.43657 12.436 2.67757 12.3664 2.78344 12.1742C2.88932 11.9823 2.7776 11.3634 2.7776 11.3634C2.7776 11.3634 2.19438 11.5988 2.08847 11.791Z" fill="#FF9F1C"/>
<path d="M4.12732 12.9151C4.02176 13.107 4.09167 13.3486 4.28351 13.4545C4.47539 13.5604 4.71701 13.4908 4.82288 13.2986C4.92876 13.1067 4.81645 12.4878 4.81645 12.4878C4.81648 12.4875 4.23323 12.7233 4.12732 12.9151Z" fill="#FF9F1C"/>
<path d="M6.16667 14.0394C6.0608 14.2313 6.13039 14.4729 6.32226 14.5788C6.51417 14.6847 6.75576 14.6148 6.86164 14.4226C6.96751 14.2307 6.85551 13.6118 6.85551 13.6118C6.85551 13.6118 6.27255 13.8475 6.16667 14.0394Z" fill="#FF9F1C"/>
<path d="M8.20478 15.1639C8.09884 15.3557 8.16849 15.5973 8.36065 15.7029C8.55253 15.8088 8.79412 15.7389 8.89999 15.547C9.00562 15.3551 8.89387 14.7362 8.89387 14.7362C8.89387 14.7362 8.31065 14.972 8.20478 15.1639Z" fill="#FF9F1C"/>
<path d="M2.23838 9.93047C2.43026 10.0363 2.67185 9.96644 2.77776 9.77459C2.88363 9.58241 2.77163 8.9635 2.77163 8.9635C2.77163 8.9635 2.18838 9.19925 2.08251 9.39113C1.97688 9.58328 2.04651 9.82459 2.23838 9.93047Z" fill="#FF9F1C"/>
<path d="M4.27666 11.0549C4.46854 11.1607 4.70985 11.0908 4.81572 10.8987C4.9216 10.7068 4.80988 10.0879 4.8096 10.0879C4.8096 10.0879 4.22666 10.3236 4.12076 10.5155C4.01488 10.7074 4.08451 10.949 4.27666 11.0549Z" fill="#FF9F1C"/>
<path d="M6.31595 12.1788C6.50783 12.2848 6.74914 12.2151 6.85502 12.023C6.96089 11.8311 6.84889 11.2122 6.84889 11.2122C6.84889 11.2122 6.26564 11.4476 6.15977 11.6398C6.05386 11.8317 6.1238 12.073 6.31595 12.1788Z" fill="#FF9F1C"/>
<path d="M8.35475 13.3032C8.54662 13.4089 8.78822 13.3392 8.89409 13.1473C9 12.9555 8.88769 12.3365 8.88769 12.3365C8.88769 12.3365 8.30475 12.572 8.19884 12.7639C8.09294 12.9558 8.16284 13.1974 8.35475 13.3032Z" fill="#FF9F1C"/>
<path d="M4.70929 8.68178C4.81516 8.48988 4.70341 7.87097 4.70341 7.87097C4.70341 7.87097 4.1202 8.10647 4.01432 8.29863C3.90845 8.49082 3.97807 8.7321 4.16991 8.83769C4.3621 8.94357 4.60341 8.87397 4.70929 8.68178Z" fill="#FF9F1C"/>
<path d="M6.74758 9.80617C6.85346 9.61427 6.74146 8.99536 6.74146 8.99536C6.74146 8.99536 6.1582 9.23083 6.05233 9.42302C5.94645 9.61489 6.01636 9.8562 6.20852 9.96208C6.40036 10.068 6.64199 9.99833 6.74758 9.80617Z" fill="#FF9F1C"/>
<path d="M8.78677 10.9305C8.89265 10.7383 8.78034 10.1194 8.78034 10.1194C8.78034 10.1194 8.19712 10.3551 8.09121 10.547C7.98562 10.7389 8.05552 10.9805 8.2474 11.0864C8.4393 11.1923 8.6809 11.1224 8.78677 10.9305Z" fill="#FF9F1C"/>
<path d="M11.3521 1.76193C10.522 2.11324 9.81736 2.69853 9.31923 3.4359C9.30023 3.46399 9.28211 3.49265 9.26367 3.52134L10.0675 3.96418C10.0675 3.96418 10.0677 3.96449 10.068 3.96474C10.3359 3.56374 10.6799 3.21712 11.0795 2.94746C11.6715 2.54762 12.382 2.31506 13.151 2.31449H14.3595V1.39868H13.151C12.5139 1.39868 11.9049 1.52796 11.3521 1.76193Z" fill="#FF9F1C"/>
</g>
<defs>
<clipPath id="clip0_914_664">
<rect width="16" height="16" fill="white"/>
</clipPath>
</defs>
</svg>
