<svg width="14" height="14" viewBox="0 0 14 14" fill="none" xmlns="http://www.w3.org/2000/svg">
<g clip-path="url(#clip0_297_1430)">
<path d="M13.4166 7.00004C13.4166 10.5438 10.5438 13.4167 6.99998 13.4167C3.45615 13.4167 0.583313 10.5438 0.583313 7.00004C0.583313 3.45621 3.45615 0.583374 6.99998 0.583374C10.5438 0.583374 13.4166 3.45621 13.4166 7.00004ZM1.75396 7.00004C1.75396 9.89734 4.10269 12.2461 6.99998 12.2461C9.89728 12.2461 12.246 9.89734 12.246 7.00004C12.246 4.10275 9.89728 1.75402 6.99998 1.75402C4.10269 1.75402 1.75396 4.10275 1.75396 7.00004Z" fill="#0F0F0F"/>
<path d="M7.00002 2.91663C6.67785 2.91663 6.41669 3.17779 6.41669 3.49996V7.2722C6.41669 7.2722 6.41669 7.42428 6.4906 7.53867C6.54006 7.63568 6.61718 7.71997 6.7185 7.77848L9.41339 9.3344C9.69239 9.49546 10.0492 9.39985 10.2102 9.12084C10.3713 8.84183 10.2757 8.48507 9.99672 8.32401L7.58335 6.93066V3.49996C7.58335 3.1778 7.3222 2.91663 7.00002 2.91663Z" fill="#0F0F0F"/>
</g>
<defs>
<clipPath id="clip0_297_1430">
<rect width="14" height="14" fill="white"/>
</clipPath>
</defs>
</svg>
