<svg width="12" height="9" viewBox="0 0 12 9" fill="none" xmlns="http://www.w3.org/2000/svg">
<g clip-path="url(#clip0_914_886)">
<path d="M0.18169 2.157C-0.042781 2.352 -0.0618833 2.68669 0.139024 2.90455C0.339926 3.12242 0.684762 3.14096 0.909228 2.94596L0.18169 2.157ZM11.0908 2.94596C11.3152 3.14096 11.6601 3.12242 11.861 2.90455C12.0619 2.68669 12.0428 2.352 11.8183 2.157L11.0908 2.94596ZM6 7.94118C5.69875 7.94118 5.45455 8.17819 5.45455 8.47059C5.45455 8.76298 5.69875 9 6 9V7.94118ZM6.00546 9C6.30671 9 6.55091 8.76298 6.55091 8.47059C6.55091 8.17819 6.30671 7.94118 6.00546 7.94118V9ZM7.46755 6.90353C7.69036 7.10026 8.03536 7.08443 8.23806 6.86816C8.4408 6.65185 8.42444 6.31705 8.20162 6.12027L7.46755 6.90353ZM9.30213 4.94486C9.52494 5.14159 9.86994 5.12576 10.0726 4.90945C10.2753 4.69318 10.259 4.35833 10.0362 4.1616L9.30213 4.94486ZM3.7984 6.12027C3.57555 6.31705 3.55922 6.65185 3.76193 6.86816C3.96464 7.08443 4.30961 7.10026 4.53246 6.90353L3.7984 6.12027ZM1.96382 4.1616C1.74098 4.35833 1.72465 4.69318 1.92736 4.90945C2.13006 5.12576 2.47504 5.14159 2.69788 4.94486L1.96382 4.1616ZM0.909228 2.94596C2.26061 1.77203 4.04384 1.05882 6 1.05882V0C3.76514 0 1.72534 0.816025 0.18169 2.157L0.909228 2.94596ZM6 1.05882C7.95616 1.05882 9.73942 1.77203 11.0908 2.94596L11.8183 2.157C10.2747 0.816025 8.23484 0 6 0V1.05882ZM6 9H6.00546V7.94118H6V9ZM6 6.35294C6.56547 6.35294 7.07962 6.56105 7.46755 6.90353L8.20162 6.12027C7.62071 5.60742 6.84742 5.29412 6 5.29412V6.35294ZM6 3.70588C7.27195 3.70588 8.42978 4.17468 9.30213 4.94486L10.0362 4.1616C8.97087 3.22105 7.55384 2.64706 6 2.64706V3.70588ZM4.53246 6.90353C4.92038 6.56105 5.43453 6.35294 6 6.35294V5.29412C5.15258 5.29412 4.3793 5.60742 3.7984 6.12027L4.53246 6.90353ZM2.69788 4.94486C3.57024 4.17468 4.72808 3.70588 6 3.70588V2.64706C4.44615 2.64706 3.02915 3.22105 1.96382 4.1616L2.69788 4.94486Z" fill="#FF9F1C"/>
</g>
<defs>
<clipPath id="clip0_914_886">
<rect width="12" height="9" fill="white"/>
</clipPath>
</defs>
</svg>
